<svg width="298" height="83" viewBox="0 0 298 83" fill="none" xmlns="http://www.w3.org/2000/svg">
<g filter="url(#filter0_d_105_3)">
<rect width="293" height="78" transform="translate(0.5 0.5)" fill="#E4EDF1"/>
<path d="M25.4744 34.588C25.1224 34.38 24.8984 34.156 24.8024 33.916C24.7064 33.692 24.6584 33.5 24.6584 33.34C24.6584 32.892 24.8184 32.284 25.1384 31.516C25.4744 30.748 25.9144 29.876 26.4584 28.9C27.0184 27.908 27.6344 26.884 28.3064 25.828C27.7144 25.78 27.2104 25.748 26.7944 25.732C26.3784 25.716 26.0184 25.708 25.7144 25.708H24.8744C25.0504 25.244 25.3544 24.924 25.7864 24.748C26.2344 24.556 26.7624 24.46 27.3704 24.46C27.6424 24.46 27.9224 24.476 28.2104 24.508C28.4984 24.54 28.7944 24.58 29.0984 24.628C29.9144 23.396 30.7464 22.204 31.5944 21.052C32.4584 19.884 33.2584 18.852 33.9944 17.956C34.7464 17.044 35.3704 16.356 35.8664 15.892C36.3304 15.444 36.7144 15.22 37.0184 15.22C37.1944 15.22 37.3864 15.292 37.5944 15.436C37.8184 15.564 38.0504 15.748 38.2904 15.988C38.1304 16.116 37.9224 16.46 37.6664 17.02C37.4264 17.564 37.1624 18.252 36.8744 19.084C36.6024 19.916 36.3304 20.828 36.0584 21.82C35.7864 22.812 35.5304 23.828 35.2904 24.868C35.0664 25.892 34.8824 26.868 34.7384 27.796C34.6104 28.724 34.5464 29.54 34.5464 30.244C34.5464 30.852 34.6104 31.324 34.7384 31.66C34.8824 31.996 35.1144 32.164 35.4344 32.164C35.8504 32.164 36.3224 31.876 36.8504 31.3C37.3784 30.724 37.9544 29.828 38.5784 28.612L38.8184 28.852C38.3384 30.132 37.7224 31.18 36.9704 31.996C36.2344 32.812 35.4664 33.22 34.6664 33.22C34.0104 33.22 33.5304 32.932 33.2264 32.356C32.9384 31.764 32.7944 30.98 32.7944 30.004C32.7944 29.492 32.8264 28.932 32.8904 28.324C32.9704 27.716 33.0744 27.084 33.2024 26.428C32.4984 26.316 31.8504 26.228 31.2584 26.164C30.6824 26.084 30.1464 26.012 29.6504 25.948C28.8984 27.34 28.1624 28.772 27.4424 30.244C26.7384 31.716 26.0824 33.164 25.4744 34.588ZM33.3704 25.588C33.6104 24.532 33.8904 23.468 34.2104 22.396C34.5304 21.308 34.8664 20.276 35.2184 19.3C35.5864 18.324 35.9304 17.468 36.2504 16.732C35.7544 17.036 35.1784 17.58 34.5224 18.364C33.8824 19.132 33.2024 20.076 32.4824 21.196C31.7624 22.3 31.0264 23.516 30.2744 24.844C30.8184 24.956 31.3544 25.084 31.8824 25.228C32.4264 25.356 32.9224 25.476 33.3704 25.588ZM40.6657 33.844C39.8977 33.844 39.2577 33.588 38.7457 33.076C38.2337 32.564 37.9777 31.796 37.9777 30.772C37.9777 29.972 38.1297 29.196 38.4337 28.444C38.7537 27.676 39.1697 26.988 39.6817 26.38C40.1937 25.772 40.7617 25.292 41.3857 24.94C42.0097 24.572 42.6257 24.388 43.2337 24.388C43.8897 24.388 44.3377 24.58 44.5777 24.964C44.8177 25.348 44.9377 25.748 44.9377 26.164C44.9377 26.628 44.8257 27.036 44.6017 27.388C44.3937 27.74 44.1057 27.916 43.7377 27.916C43.4657 27.916 43.2337 27.796 43.0417 27.556C43.2817 27.428 43.4897 27.172 43.6657 26.788C43.8417 26.388 43.9297 26.012 43.9297 25.66C43.9297 25.468 43.8897 25.324 43.8097 25.228C43.7457 25.116 43.6097 25.06 43.4017 25.06C42.9697 25.06 42.5217 25.252 42.0577 25.636C41.6097 26.02 41.1857 26.516 40.7857 27.124C40.4017 27.732 40.0817 28.372 39.8257 29.044C39.5857 29.716 39.4657 30.348 39.4657 30.94C39.4657 31.436 39.5857 31.892 39.8257 32.308C40.0657 32.724 40.5297 32.932 41.2177 32.932C41.8577 32.932 42.4977 32.756 43.1377 32.404C43.7937 32.052 44.4017 31.548 44.9617 30.892C45.5217 30.236 45.9697 29.468 46.3057 28.588L46.6177 28.828C46.2497 29.788 45.7457 30.652 45.1057 31.42C44.4657 32.172 43.7617 32.764 42.9937 33.196C42.2257 33.628 41.4497 33.844 40.6657 33.844ZM50.0075 33.124C49.4635 33.124 49.0315 32.98 48.7115 32.692C48.4075 32.404 48.2555 32.028 48.2555 31.564C48.2555 31.084 48.3675 30.58 48.5915 30.052C48.8155 29.524 49.0315 29.004 49.2395 28.492C49.4635 27.964 49.5755 27.492 49.5755 27.076C49.5755 26.564 49.4235 26.188 49.1195 25.948C48.8315 25.692 48.5355 25.46 48.2315 25.252C47.8635 26.196 47.4795 27.092 47.0795 27.94C46.6795 28.788 46.3515 29.428 46.0955 29.86L45.8795 29.452C46.1035 29.036 46.3915 28.428 46.7435 27.628C47.1115 26.828 47.4715 25.916 47.8235 24.892C47.6635 24.732 47.5835 24.54 47.5835 24.316C47.5835 23.836 47.7195 23.444 47.9915 23.14C48.2635 22.836 48.4635 22.684 48.5915 22.684C48.7675 22.684 48.8635 22.764 48.8795 22.924C48.9115 23.068 48.9275 23.18 48.9275 23.26C48.9275 23.34 48.8795 23.5 48.7835 23.74C48.7035 23.964 48.6635 24.1 48.6635 24.148C48.6635 24.372 48.7835 24.58 49.0235 24.772C49.2795 24.948 49.5675 25.156 49.8875 25.396C50.2075 25.62 50.4875 25.9 50.7275 26.236C50.9835 26.556 51.1115 26.972 51.1115 27.484C51.1115 27.964 51.0075 28.452 50.7995 28.948C50.6075 29.444 50.4075 29.916 50.1995 30.364C50.0075 30.812 49.9115 31.204 49.9115 31.54C49.9115 31.828 49.9835 32.02 50.1275 32.116C50.2715 32.212 50.4395 32.26 50.6315 32.26C51.0155 32.26 51.4075 32.14 51.8075 31.9C52.2235 31.66 52.6235 31.356 53.0075 30.988C53.3915 30.62 53.7355 30.236 54.0395 29.836C54.3435 29.42 54.5675 29.036 54.7115 28.684L55.0235 28.924C54.7195 29.596 54.3035 30.26 53.7755 30.916C53.2475 31.556 52.6555 32.084 51.9995 32.5C51.3595 32.916 50.6955 33.124 50.0075 33.124ZM56.7912 33.556C55.8152 33.556 55.0792 33.284 54.5832 32.74C54.1032 32.212 53.8632 31.556 53.8632 30.772C53.8632 30.052 54.0392 29.292 54.3912 28.492C54.7592 27.692 55.2392 26.94 55.8312 26.236C56.4392 25.532 57.1032 24.964 57.8232 24.532C58.5432 24.084 59.2552 23.86 59.9592 23.86C60.3272 23.86 60.6632 23.956 60.9672 24.148C61.2872 24.34 61.4472 24.732 61.4472 25.324C61.4472 25.932 61.2632 26.508 60.8952 27.052C60.5432 27.58 60.0712 28.052 59.4792 28.468C58.9032 28.884 58.2632 29.228 57.5592 29.5C56.8712 29.756 56.1832 29.916 55.4952 29.98C55.4632 30.14 55.4392 30.292 55.4232 30.436C55.4072 30.58 55.3992 30.716 55.3992 30.844C55.3992 31.084 55.4232 31.324 55.4712 31.564C55.5352 31.804 55.6392 32.028 55.7832 32.236C55.9272 32.428 56.1192 32.58 56.3592 32.692C56.6152 32.804 56.9272 32.86 57.2952 32.86C57.9832 32.86 58.6632 32.668 59.3352 32.284C60.0072 31.884 60.6312 31.364 61.2072 30.724C61.7832 30.084 62.2712 29.38 62.6712 28.612L62.9592 28.828C62.5272 29.788 61.9752 30.62 61.3032 31.324C60.6472 32.028 59.9272 32.572 59.1432 32.956C58.3752 33.356 57.5912 33.556 56.7912 33.556ZM55.6152 29.524C56.0472 29.38 56.5352 29.172 57.0792 28.9C57.6232 28.612 58.1432 28.276 58.6392 27.892C59.1512 27.508 59.5672 27.084 59.8872 26.62C60.2232 26.156 60.3912 25.668 60.3912 25.156C60.3912 24.98 60.3592 24.844 60.2952 24.748C60.2312 24.652 60.0952 24.604 59.8872 24.604C59.5032 24.604 59.0952 24.756 58.6632 25.06C58.2312 25.348 57.8152 25.732 57.4152 26.212C57.0152 26.692 56.6552 27.22 56.3352 27.796C56.0152 28.372 55.7752 28.948 55.6152 29.524ZM63.6074 33.22C63.3354 33.22 63.0554 33.148 62.7674 33.004C62.4954 32.876 62.2714 32.66 62.0954 32.356C61.9034 32.052 61.8074 31.668 61.8074 31.204C61.8074 30.676 61.9354 30.084 62.1914 29.428C62.4474 28.772 62.7914 28.124 63.2234 27.484C63.6554 26.828 64.1514 26.228 64.7114 25.684C65.2714 25.124 65.8554 24.684 66.4634 24.364C67.0714 24.028 67.6714 23.86 68.2634 23.86C68.5994 23.86 68.8554 23.924 69.0314 24.052C69.2234 24.164 69.3194 24.348 69.3194 24.604C69.3194 24.668 69.3114 24.724 69.2954 24.772C69.2954 24.82 69.2874 24.876 69.2714 24.94C69.1914 24.812 69.0714 24.724 68.9114 24.676C68.7674 24.612 68.5834 24.58 68.3594 24.58C67.8474 24.58 67.3434 24.74 66.8474 25.06C66.3674 25.364 65.9194 25.772 65.5034 26.284C65.1034 26.78 64.7514 27.316 64.4474 27.892C64.1434 28.468 63.9034 29.028 63.7274 29.572C63.5674 30.1 63.4874 30.548 63.4874 30.916C63.4874 31.268 63.5674 31.548 63.7274 31.756C63.8874 31.964 64.0954 32.068 64.3514 32.068C64.7834 32.068 65.3034 31.796 65.9114 31.252C66.5354 30.708 67.1674 29.94 67.8074 28.948C68.4474 27.956 69.0234 26.796 69.5354 25.468C69.8874 24.54 70.2474 23.596 70.6154 22.636C70.9994 21.676 71.3834 20.756 71.7674 19.876C72.1514 18.98 72.5194 18.188 72.8714 17.5C73.2394 16.796 73.5834 16.244 73.9034 15.844C74.2394 15.428 74.5354 15.22 74.7914 15.22C74.9194 15.22 75.0314 15.276 75.1274 15.388C75.2234 15.484 75.2714 15.612 75.2714 15.772C75.2714 16.028 75.1354 16.468 74.8634 17.092C74.6074 17.7 74.2634 18.436 73.8314 19.3C73.4154 20.148 72.9754 21.076 72.5114 22.084C72.0474 23.092 71.5994 24.116 71.1674 25.156C70.7514 26.196 70.4074 27.204 70.1354 28.18C69.8794 29.14 69.7514 30.02 69.7514 30.82C69.7514 31.268 69.7754 31.604 69.8234 31.828C69.8714 32.052 70.0314 32.164 70.3034 32.164C70.6394 32.164 71.0314 32.02 71.4794 31.732C71.9274 31.444 72.3754 31.036 72.8234 30.508C73.2714 29.98 73.6634 29.348 73.9994 28.612L74.2874 28.828C73.9834 29.644 73.5674 30.38 73.0394 31.036C72.5114 31.676 71.9434 32.18 71.3354 32.548C70.7434 32.932 70.1754 33.124 69.6314 33.124C69.0394 33.124 68.6234 32.924 68.3834 32.524C68.1594 32.14 68.0474 31.74 68.0474 31.324C68.0474 31.052 68.0874 30.692 68.1674 30.244C68.2474 29.796 68.3594 29.3 68.5034 28.756C67.9914 29.604 67.4474 30.372 66.8714 31.06C66.2954 31.732 65.7274 32.26 65.1674 32.644C64.6234 33.028 64.1034 33.22 63.6074 33.22ZM75.2632 33.124C74.6392 33.124 74.1752 32.924 73.8712 32.524C73.5672 32.14 73.4152 31.668 73.4152 31.108C73.4152 30.74 73.4792 30.276 73.6072 29.716C73.7512 29.156 73.9352 28.572 74.1592 27.964C74.3832 27.34 74.6392 26.756 74.9272 26.212C75.2312 25.668 75.5512 25.228 75.8872 24.892C76.2232 24.54 76.5512 24.364 76.8712 24.364C77.0152 24.364 77.1352 24.412 77.2312 24.508C77.3432 24.588 77.3992 24.716 77.3992 24.892C77.3992 25.084 77.2712 25.396 77.0152 25.828C76.7752 26.26 76.4872 26.756 76.1512 27.316C75.8152 27.876 75.5192 28.468 75.2632 29.092C75.0232 29.7 74.9032 30.284 74.9032 30.844C74.9032 31.42 74.9992 31.804 75.1912 31.996C75.3832 32.188 75.6792 32.284 76.0792 32.284C76.6232 32.284 77.1992 32.012 77.8072 31.468C78.4312 30.924 79.0872 29.972 79.7752 28.612L79.9912 28.852C79.5272 30.228 78.8552 31.284 77.9752 32.02C77.1112 32.756 76.2072 33.124 75.2632 33.124ZM78.1432 22.132C77.8872 22.132 77.6552 22.068 77.4472 21.94C77.2552 21.812 77.1592 21.612 77.1592 21.34C77.1592 21.004 77.3512 20.716 77.7352 20.476C78.1352 20.22 78.5272 20.092 78.9112 20.092C79.1512 20.092 79.3432 20.148 79.4872 20.26C79.6312 20.372 79.7032 20.564 79.7032 20.836C79.7032 21.14 79.5352 21.436 79.1992 21.724C78.8792 21.996 78.5272 22.132 78.1432 22.132ZM81.3642 33.604C80.6762 33.604 80.1482 33.404 79.7802 33.004C79.4122 32.604 79.2282 32.012 79.2282 31.228C79.2282 30.524 79.3562 29.66 79.6122 28.636C79.8842 27.596 80.2202 26.532 80.6202 25.444C80.4602 25.412 80.3082 25.388 80.1642 25.372C80.0202 25.34 79.8842 25.3 79.7562 25.252V24.82C79.8842 24.836 80.0362 24.852 80.2122 24.868C80.3882 24.884 80.5882 24.9 80.8122 24.916C81.1482 24.052 81.5082 23.22 81.8922 22.42C82.2762 21.604 82.6522 20.884 83.0202 20.26C83.4042 19.62 83.7642 19.116 84.1002 18.748C84.4522 18.364 84.7482 18.172 84.9882 18.172C85.1162 18.172 85.2282 18.22 85.3242 18.316C85.4362 18.396 85.4922 18.524 85.4922 18.7C85.4922 18.972 85.3242 19.42 84.9882 20.044C84.6522 20.652 84.2362 21.38 83.7402 22.228C83.2442 23.076 82.7642 23.996 82.3002 24.988C82.4442 24.988 82.5882 24.988 82.7322 24.988C82.8922 24.988 83.0442 24.988 83.1882 24.988C83.7162 24.988 84.2682 24.98 84.8442 24.964C85.4362 24.948 86.0282 24.908 86.6202 24.844V25.276C85.7402 25.372 84.9482 25.444 84.2442 25.492C83.5562 25.54 82.9402 25.564 82.3962 25.564C82.3322 25.564 82.2682 25.564 82.2042 25.564C82.1562 25.564 82.1002 25.564 82.0362 25.564C81.6682 26.412 81.3562 27.284 81.1002 28.18C80.8442 29.076 80.7162 29.948 80.7162 30.796C80.7162 31.484 80.8202 31.98 81.0282 32.284C81.2362 32.572 81.5802 32.716 82.0602 32.716C82.8922 32.716 83.7082 32.348 84.5082 31.612C85.3082 30.876 86.0122 29.876 86.6202 28.612L86.9322 28.852C86.5482 29.748 86.0602 30.556 85.4682 31.276C84.8922 31.996 84.2522 32.564 83.5482 32.98C82.8442 33.396 82.1162 33.604 81.3642 33.604ZM88.76 33.556C87.784 33.556 87.048 33.284 86.552 32.74C86.072 32.212 85.832 31.556 85.832 30.772C85.832 30.052 86.008 29.292 86.36 28.492C86.728 27.692 87.208 26.94 87.8 26.236C88.408 25.532 89.072 24.964 89.792 24.532C90.512 24.084 91.224 23.86 91.928 23.86C92.296 23.86 92.632 23.956 92.936 24.148C93.256 24.34 93.416 24.732 93.416 25.324C93.416 25.932 93.232 26.508 92.864 27.052C92.512 27.58 92.04 28.052 91.448 28.468C90.872 28.884 90.232 29.228 89.528 29.5C88.84 29.756 88.152 29.916 87.464 29.98C87.432 30.14 87.408 30.292 87.392 30.436C87.376 30.58 87.368 30.716 87.368 30.844C87.368 31.084 87.392 31.324 87.44 31.564C87.504 31.804 87.608 32.028 87.752 32.236C87.896 32.428 88.088 32.58 88.328 32.692C88.584 32.804 88.896 32.86 89.264 32.86C89.952 32.86 90.632 32.668 91.304 32.284C91.976 31.884 92.6 31.364 93.176 30.724C93.752 30.084 94.24 29.38 94.64 28.612L94.928 28.828C94.496 29.788 93.944 30.62 93.272 31.324C92.616 32.028 91.896 32.572 91.112 32.956C90.344 33.356 89.56 33.556 88.76 33.556ZM87.584 29.524C88.016 29.38 88.504 29.172 89.048 28.9C89.592 28.612 90.112 28.276 90.608 27.892C91.12 27.508 91.536 27.084 91.856 26.62C92.192 26.156 92.36 25.668 92.36 25.156C92.36 24.98 92.328 24.844 92.264 24.748C92.2 24.652 92.064 24.604 91.856 24.604C91.472 24.604 91.064 24.756 90.632 25.06C90.2 25.348 89.784 25.732 89.384 26.212C88.984 26.692 88.624 27.22 88.304 27.796C87.984 28.372 87.744 28.948 87.584 29.524ZM102.987 33.556C102.011 33.556 101.275 33.284 100.779 32.74C100.299 32.212 100.059 31.556 100.059 30.772C100.059 30.052 100.235 29.292 100.587 28.492C100.955 27.692 101.435 26.94 102.027 26.236C102.635 25.532 103.299 24.964 104.019 24.532C104.739 24.084 105.451 23.86 106.155 23.86C106.523 23.86 106.859 23.956 107.163 24.148C107.483 24.34 107.643 24.732 107.643 25.324C107.643 25.932 107.459 26.508 107.091 27.052C106.739 27.58 106.267 28.052 105.675 28.468C105.099 28.884 104.459 29.228 103.755 29.5C103.067 29.756 102.379 29.916 101.691 29.98C101.659 30.14 101.635 30.292 101.619 30.436C101.603 30.58 101.595 30.716 101.595 30.844C101.595 31.084 101.619 31.324 101.667 31.564C101.731 31.804 101.835 32.028 101.979 32.236C102.123 32.428 102.315 32.58 102.555 32.692C102.811 32.804 103.123 32.86 103.491 32.86C104.179 32.86 104.859 32.668 105.531 32.284C106.203 31.884 106.827 31.364 107.403 30.724C107.979 30.084 108.467 29.38 108.867 28.612L109.155 28.828C108.723 29.788 108.171 30.62 107.499 31.324C106.843 32.028 106.123 32.572 105.339 32.956C104.571 33.356 103.787 33.556 102.987 33.556ZM101.811 29.524C102.243 29.38 102.731 29.172 103.275 28.9C103.819 28.612 104.339 28.276 104.835 27.892C105.347 27.508 105.763 27.084 106.083 26.62C106.419 26.156 106.587 25.668 106.587 25.156C106.587 24.98 106.555 24.844 106.491 24.748C106.427 24.652 106.291 24.604 106.083 24.604C105.699 24.604 105.291 24.756 104.859 25.06C104.427 25.348 104.011 25.732 103.611 26.212C103.211 26.692 102.851 27.22 102.531 27.796C102.211 28.372 101.971 28.948 101.811 29.524ZM120.483 33.244C119.923 33.244 119.515 33.068 119.259 32.716C119.003 32.38 118.875 31.972 118.875 31.492C118.875 31.092 118.931 30.692 119.043 30.292C119.171 29.892 119.291 29.5 119.403 29.116C119.531 28.732 119.595 28.388 119.595 28.084C119.595 27.764 119.523 27.54 119.379 27.412C119.235 27.284 119.075 27.22 118.899 27.22C118.499 27.22 118.059 27.532 117.579 28.156C117.115 28.78 116.507 29.66 115.755 30.796C115.499 31.18 115.283 31.572 115.107 31.972C114.931 32.356 114.763 32.708 114.603 33.028C114.475 33.028 114.315 33.012 114.123 32.98C113.931 32.948 113.755 32.892 113.595 32.812C113.451 32.748 113.379 32.66 113.379 32.548C113.379 32.436 113.451 32.172 113.595 31.756C113.755 31.324 113.931 30.828 114.123 30.268C114.331 29.692 114.507 29.116 114.651 28.54C114.811 27.948 114.891 27.444 114.891 27.028C114.891 26.756 114.843 26.54 114.747 26.38C114.667 26.204 114.515 26.116 114.291 26.116C113.939 26.116 113.515 26.332 113.019 26.764C112.523 27.18 112.011 27.732 111.483 28.42C110.955 29.108 110.451 29.868 109.971 30.7C109.507 31.516 109.131 32.332 108.843 33.148C108.699 33.148 108.523 33.124 108.315 33.076C108.107 33.028 107.931 32.964 107.787 32.884C107.627 32.804 107.547 32.724 107.547 32.644C107.547 32.548 107.635 32.268 107.811 31.804C107.971 31.324 108.163 30.756 108.387 30.1C108.595 29.428 108.779 28.748 108.939 28.06C109.115 27.372 109.203 26.764 109.203 26.236C109.299 26.124 109.451 26.012 109.659 25.9C109.867 25.788 110.083 25.732 110.307 25.732C110.531 25.732 110.691 25.788 110.787 25.9C110.899 26.012 110.955 26.164 110.955 26.356C110.955 26.564 110.891 26.924 110.763 27.436C110.651 27.932 110.507 28.484 110.331 29.092C110.651 28.58 111.011 28.06 111.411 27.532C111.827 26.988 112.259 26.492 112.707 26.044C113.155 25.596 113.603 25.236 114.051 24.964C114.515 24.676 114.963 24.532 115.395 24.532C115.891 24.532 116.227 24.716 116.403 25.084C116.595 25.436 116.691 25.86 116.691 26.356C116.691 26.756 116.643 27.18 116.547 27.628C116.467 28.06 116.371 28.468 116.259 28.852C116.147 29.22 116.043 29.516 115.947 29.74C116.283 29.132 116.651 28.548 117.051 27.988C117.467 27.412 117.915 26.948 118.395 26.596C118.875 26.228 119.387 26.044 119.931 26.044C120.443 26.044 120.795 26.196 120.987 26.5C121.195 26.804 121.299 27.164 121.299 27.58C121.299 27.996 121.227 28.452 121.083 28.948C120.939 29.444 120.787 29.924 120.627 30.388C120.483 30.852 120.411 31.252 120.411 31.588C120.411 31.796 120.459 31.988 120.555 32.164C120.667 32.324 120.859 32.404 121.131 32.404C121.579 32.404 121.995 32.204 122.379 31.804C122.779 31.388 123.147 30.892 123.483 30.316C123.819 29.724 124.107 29.156 124.347 28.612L124.635 28.948C124.379 29.62 124.051 30.292 123.651 30.964C123.251 31.62 122.779 32.164 122.235 32.596C121.707 33.028 121.123 33.244 120.483 33.244ZM131.697 33.436C131.201 33.436 130.857 33.188 130.665 32.692C130.473 32.212 130.377 31.58 130.377 30.796C130.377 30.764 130.385 30.516 130.401 30.052C130.417 29.572 130.457 28.772 130.521 27.652C130.553 27.22 130.601 26.924 130.665 26.764C130.729 26.604 130.937 26.524 131.289 26.524C131.561 26.524 131.729 26.58 131.793 26.692C131.873 26.788 131.913 26.988 131.913 27.292C131.913 27.82 131.873 28.444 131.793 29.164C131.729 29.868 131.697 30.532 131.697 31.156C131.697 31.62 131.737 31.964 131.817 32.188C131.897 32.396 132.041 32.5 132.249 32.5C132.537 32.5 132.857 32.34 133.209 32.02C133.561 31.684 133.921 31.252 134.289 30.724C134.657 30.18 135.001 29.604 135.321 28.996C135.657 28.388 135.953 27.804 136.209 27.244C136.241 26.156 136.353 25.436 136.545 25.084C136.753 24.716 137.009 24.532 137.313 24.532C137.617 24.532 137.833 24.644 137.961 24.868C138.105 25.076 138.177 25.268 138.177 25.444C138.177 25.652 138.105 25.868 137.961 26.092C137.833 26.316 137.697 26.62 137.553 27.004C137.409 27.388 137.337 27.94 137.337 28.66C137.337 28.916 137.361 29.188 137.409 29.476C137.457 29.764 137.561 30.004 137.721 30.196C137.881 30.388 138.129 30.484 138.465 30.484C138.801 30.484 139.121 30.356 139.425 30.1C139.745 29.828 140.057 29.364 140.361 28.708L140.673 28.948C140.321 29.748 139.929 30.284 139.497 30.556C139.081 30.828 138.681 30.964 138.297 30.964C137.769 30.964 137.329 30.772 136.977 30.388C136.625 30.004 136.393 29.42 136.281 28.636C135.897 29.42 135.441 30.18 134.913 30.916C134.401 31.636 133.865 32.236 133.305 32.716C132.745 33.196 132.209 33.436 131.697 33.436ZM141.566 33.268C140.878 33.268 140.39 33.052 140.102 32.62C139.814 32.204 139.67 31.692 139.67 31.084C139.67 30.588 139.75 30.076 139.91 29.548C140.07 29.02 140.278 28.524 140.534 28.06C140.806 27.596 141.102 27.22 141.422 26.932C141.758 26.644 142.094 26.5 142.43 26.5C142.51 26.5 142.59 26.516 142.67 26.548C142.766 26.564 142.854 26.588 142.934 26.62C142.79 26.748 142.614 26.988 142.406 27.34C142.214 27.676 142.03 28.068 141.854 28.516C141.678 28.948 141.526 29.38 141.398 29.812C141.286 30.244 141.23 30.612 141.23 30.916C141.23 31.396 141.31 31.748 141.47 31.972C141.63 32.18 141.838 32.284 142.094 32.284C142.43 32.284 142.83 32.108 143.294 31.756C143.758 31.388 144.214 30.924 144.662 30.364C144.214 29.996 143.862 29.516 143.606 28.924C143.366 28.316 143.246 27.7 143.246 27.076C143.246 26.548 143.334 26.052 143.51 25.588C143.702 25.124 143.974 24.756 144.326 24.484C144.678 24.196 145.102 24.052 145.598 24.052C146.254 24.052 146.694 24.228 146.918 24.58C147.142 24.932 147.254 25.372 147.254 25.9C147.254 26.524 147.102 27.22 146.798 27.988C146.494 28.74 146.11 29.468 145.646 30.172C145.934 30.332 146.238 30.412 146.558 30.412C146.814 30.412 147.102 30.364 147.422 30.268C147.742 30.156 148.054 29.972 148.358 29.716C148.678 29.46 148.934 29.116 149.126 28.684L149.414 28.924C149.094 29.676 148.638 30.212 148.046 30.532C147.47 30.836 146.918 30.988 146.39 30.988C146.182 30.988 145.982 30.972 145.79 30.94C145.598 30.892 145.414 30.828 145.238 30.748C144.694 31.468 144.094 32.068 143.438 32.548C142.798 33.028 142.174 33.268 141.566 33.268ZM145.094 29.74C145.494 29.148 145.822 28.532 146.078 27.892C146.35 27.236 146.486 26.62 146.486 26.044C146.486 25.58 146.414 25.244 146.27 25.036C146.142 24.812 145.974 24.7 145.766 24.7C145.446 24.7 145.118 24.932 144.782 25.396C144.446 25.86 144.278 26.444 144.278 27.148C144.278 27.612 144.342 28.084 144.47 28.564C144.614 29.028 144.822 29.42 145.094 29.74ZM151.244 33.844C150.476 33.844 149.836 33.588 149.324 33.076C148.812 32.564 148.556 31.796 148.556 30.772C148.556 29.972 148.708 29.196 149.012 28.444C149.332 27.676 149.748 26.988 150.26 26.38C150.772 25.772 151.34 25.292 151.964 24.94C152.588 24.572 153.204 24.388 153.812 24.388C154.468 24.388 154.916 24.58 155.156 24.964C155.396 25.348 155.516 25.748 155.516 26.164C155.516 26.628 155.404 27.036 155.18 27.388C154.972 27.74 154.684 27.916 154.316 27.916C154.044 27.916 153.812 27.796 153.62 27.556C153.86 27.428 154.068 27.172 154.244 26.788C154.42 26.388 154.508 26.012 154.508 25.66C154.508 25.468 154.468 25.324 154.388 25.228C154.324 25.116 154.188 25.06 153.98 25.06C153.548 25.06 153.1 25.252 152.636 25.636C152.188 26.02 151.764 26.516 151.364 27.124C150.98 27.732 150.66 28.372 150.404 29.044C150.164 29.716 150.044 30.348 150.044 30.94C150.044 31.436 150.164 31.892 150.404 32.308C150.644 32.724 151.108 32.932 151.796 32.932C152.436 32.932 153.076 32.756 153.716 32.404C154.372 32.052 154.98 31.548 155.54 30.892C156.1 30.236 156.548 29.468 156.884 28.588L157.196 28.828C156.828 29.788 156.324 30.652 155.684 31.42C155.044 32.172 154.34 32.764 153.572 33.196C152.804 33.628 152.028 33.844 151.244 33.844ZM159.026 33.556C158.05 33.556 157.314 33.284 156.818 32.74C156.338 32.212 156.098 31.556 156.098 30.772C156.098 30.052 156.274 29.292 156.626 28.492C156.994 27.692 157.474 26.94 158.066 26.236C158.674 25.532 159.338 24.964 160.058 24.532C160.778 24.084 161.49 23.86 162.194 23.86C162.562 23.86 162.898 23.956 163.202 24.148C163.522 24.34 163.682 24.732 163.682 25.324C163.682 25.932 163.498 26.508 163.13 27.052C162.778 27.58 162.306 28.052 161.714 28.468C161.138 28.884 160.498 29.228 159.794 29.5C159.106 29.756 158.418 29.916 157.73 29.98C157.698 30.14 157.674 30.292 157.658 30.436C157.642 30.58 157.634 30.716 157.634 30.844C157.634 31.084 157.658 31.324 157.706 31.564C157.77 31.804 157.874 32.028 158.018 32.236C158.162 32.428 158.354 32.58 158.594 32.692C158.85 32.804 159.162 32.86 159.53 32.86C160.218 32.86 160.898 32.668 161.57 32.284C162.242 31.884 162.866 31.364 163.442 30.724C164.018 30.084 164.506 29.38 164.906 28.612L165.194 28.828C164.762 29.788 164.21 30.62 163.538 31.324C162.882 32.028 162.162 32.572 161.378 32.956C160.61 33.356 159.826 33.556 159.026 33.556ZM157.85 29.524C158.282 29.38 158.77 29.172 159.314 28.9C159.858 28.612 160.378 28.276 160.874 27.892C161.386 27.508 161.802 27.084 162.122 26.62C162.458 26.156 162.626 25.668 162.626 25.156C162.626 24.98 162.594 24.844 162.53 24.748C162.466 24.652 162.33 24.604 162.122 24.604C161.738 24.604 161.33 24.756 160.898 25.06C160.466 25.348 160.05 25.732 159.65 26.212C159.25 26.692 158.89 27.22 158.57 27.796C158.25 28.372 158.01 28.948 157.85 29.524ZM165.074 22.66C164.85 22.196 164.594 21.804 164.306 21.484C164.018 21.148 163.682 20.804 163.298 20.452C162.802 20.628 162.354 20.82 161.954 21.028C161.57 21.236 161.194 21.5 160.826 21.82C160.73 21.756 160.666 21.684 160.634 21.604C160.602 21.508 160.586 21.428 160.586 21.364C160.586 21.124 160.69 20.884 160.898 20.644C161.122 20.404 161.386 20.18 161.69 19.972C162.01 19.748 162.322 19.572 162.626 19.444C162.93 19.316 163.162 19.252 163.322 19.252C163.514 19.252 163.73 19.34 163.97 19.516C164.226 19.692 164.466 19.924 164.69 20.212C164.914 20.484 165.098 20.772 165.242 21.076C165.402 21.38 165.482 21.66 165.482 21.916C165.482 22.076 165.45 22.22 165.386 22.348C165.322 22.476 165.218 22.58 165.074 22.66ZM182.756 33.244C182.196 33.244 181.788 33.068 181.532 32.716C181.276 32.38 181.148 31.972 181.148 31.492C181.148 31.092 181.204 30.692 181.316 30.292C181.444 29.892 181.564 29.5 181.676 29.116C181.804 28.732 181.868 28.388 181.868 28.084C181.868 27.764 181.796 27.54 181.652 27.412C181.508 27.284 181.348 27.22 181.172 27.22C180.772 27.22 180.332 27.532 179.852 28.156C179.388 28.78 178.78 29.66 178.028 30.796C177.772 31.18 177.556 31.572 177.38 31.972C177.204 32.356 177.036 32.708 176.876 33.028C176.748 33.028 176.588 33.012 176.396 32.98C176.204 32.948 176.028 32.892 175.868 32.812C175.724 32.748 175.652 32.66 175.652 32.548C175.652 32.436 175.724 32.172 175.868 31.756C176.028 31.324 176.204 30.828 176.396 30.268C176.604 29.692 176.78 29.116 176.924 28.54C177.084 27.948 177.164 27.444 177.164 27.028C177.164 26.756 177.116 26.54 177.02 26.38C176.94 26.204 176.788 26.116 176.564 26.116C176.212 26.116 175.788 26.332 175.292 26.764C174.796 27.18 174.284 27.732 173.756 28.42C173.228 29.108 172.724 29.868 172.244 30.7C171.78 31.516 171.404 32.332 171.116 33.148C170.972 33.148 170.796 33.124 170.588 33.076C170.38 33.028 170.204 32.964 170.06 32.884C169.9 32.804 169.82 32.724 169.82 32.644C169.82 32.548 169.908 32.268 170.084 31.804C170.244 31.324 170.436 30.756 170.66 30.1C170.868 29.428 171.052 28.748 171.212 28.06C171.388 27.372 171.476 26.764 171.476 26.236C171.572 26.124 171.724 26.012 171.932 25.9C172.14 25.788 172.356 25.732 172.58 25.732C172.804 25.732 172.964 25.788 173.06 25.9C173.172 26.012 173.228 26.164 173.228 26.356C173.228 26.564 173.164 26.924 173.036 27.436C172.924 27.932 172.78 28.484 172.604 29.092C172.924 28.58 173.284 28.06 173.684 27.532C174.1 26.988 174.532 26.492 174.98 26.044C175.428 25.596 175.876 25.236 176.324 24.964C176.788 24.676 177.236 24.532 177.668 24.532C178.164 24.532 178.5 24.716 178.676 25.084C178.868 25.436 178.964 25.86 178.964 26.356C178.964 26.756 178.916 27.18 178.82 27.628C178.74 28.06 178.644 28.468 178.532 28.852C178.42 29.22 178.316 29.516 178.22 29.74C178.556 29.132 178.924 28.548 179.324 27.988C179.74 27.412 180.188 26.948 180.668 26.596C181.148 26.228 181.66 26.044 182.204 26.044C182.716 26.044 183.068 26.196 183.26 26.5C183.468 26.804 183.572 27.164 183.572 27.58C183.572 27.996 183.5 28.452 183.356 28.948C183.212 29.444 183.06 29.924 182.9 30.388C182.756 30.852 182.684 31.252 182.684 31.588C182.684 31.796 182.732 31.988 182.828 32.164C182.94 32.324 183.132 32.404 183.404 32.404C183.852 32.404 184.268 32.204 184.652 31.804C185.052 31.388 185.42 30.892 185.756 30.316C186.092 29.724 186.38 29.156 186.62 28.612L186.908 28.948C186.652 29.62 186.324 30.292 185.924 30.964C185.524 31.62 185.052 32.164 184.508 32.596C183.98 33.028 183.396 33.244 182.756 33.244ZM188.768 33.556C187.792 33.556 187.056 33.284 186.56 32.74C186.08 32.212 185.84 31.556 185.84 30.772C185.84 30.052 186.016 29.292 186.368 28.492C186.736 27.692 187.216 26.94 187.808 26.236C188.416 25.532 189.08 24.964 189.8 24.532C190.52 24.084 191.232 23.86 191.936 23.86C192.304 23.86 192.64 23.956 192.944 24.148C193.264 24.34 193.424 24.732 193.424 25.324C193.424 25.932 193.24 26.508 192.872 27.052C192.52 27.58 192.048 28.052 191.456 28.468C190.88 28.884 190.24 29.228 189.536 29.5C188.848 29.756 188.16 29.916 187.472 29.98C187.44 30.14 187.416 30.292 187.4 30.436C187.384 30.58 187.376 30.716 187.376 30.844C187.376 31.084 187.4 31.324 187.448 31.564C187.512 31.804 187.616 32.028 187.76 32.236C187.904 32.428 188.096 32.58 188.336 32.692C188.592 32.804 188.904 32.86 189.272 32.86C189.96 32.86 190.64 32.668 191.312 32.284C191.984 31.884 192.608 31.364 193.184 30.724C193.76 30.084 194.248 29.38 194.648 28.612L194.936 28.828C194.504 29.788 193.952 30.62 193.28 31.324C192.624 32.028 191.904 32.572 191.12 32.956C190.352 33.356 189.568 33.556 188.768 33.556ZM187.592 29.524C188.024 29.38 188.512 29.172 189.056 28.9C189.6 28.612 190.12 28.276 190.616 27.892C191.128 27.508 191.544 27.084 191.864 26.62C192.2 26.156 192.368 25.668 192.368 25.156C192.368 24.98 192.336 24.844 192.272 24.748C192.208 24.652 192.072 24.604 191.864 24.604C191.48 24.604 191.072 24.756 190.64 25.06C190.208 25.348 189.792 25.732 189.392 26.212C188.992 26.692 188.632 27.22 188.312 27.796C187.992 28.372 187.752 28.948 187.592 29.524ZM196.688 33.724C195.936 33.724 195.336 33.556 194.888 33.22C194.456 32.9 194.152 32.5 193.976 32.02C193.784 31.54 193.688 31.06 193.688 30.58C193.688 30.1 193.752 29.732 193.88 29.476C194.008 29.22 194.16 29.028 194.336 28.9C194.528 28.772 194.704 28.676 194.864 28.612C195.04 28.548 195.16 28.484 195.224 28.42C195.704 27.892 196.144 27.34 196.544 26.764C196.944 26.188 197.296 25.58 197.6 24.94V24.652C197.6 24.06 197.696 23.644 197.888 23.404C198.096 23.148 198.312 23.02 198.536 23.02C198.664 23.02 198.76 23.052 198.824 23.116C198.888 23.18 198.92 23.252 198.92 23.332C198.92 23.412 198.896 23.54 198.848 23.716C198.8 23.892 198.776 24.116 198.776 24.388C198.776 24.916 198.88 25.492 199.088 26.116C199.296 26.724 199.504 27.372 199.712 28.06C199.92 28.732 200.024 29.436 200.024 30.172C200.024 30.38 200.008 30.588 199.976 30.796C199.96 30.988 199.928 31.172 199.88 31.348C200.44 31.252 200.968 31.004 201.464 30.604C201.96 30.188 202.44 29.532 202.904 28.636L203.12 28.876C202.816 29.756 202.36 30.428 201.752 30.892C201.144 31.34 200.48 31.62 199.76 31.732C199.504 32.42 199.096 32.924 198.536 33.244C197.992 33.564 197.376 33.724 196.688 33.724ZM196.736 32.884C196.928 32.884 197.184 32.82 197.504 32.692C197.824 32.564 198.072 32.236 198.248 31.708C197.576 31.58 196.976 31.316 196.448 30.916C195.936 30.516 195.552 30.116 195.296 29.716C194.944 29.732 194.768 30.012 194.768 30.556C194.768 31.132 194.936 31.668 195.272 32.164C195.624 32.644 196.112 32.884 196.736 32.884ZM198.368 31.324C198.4 31.164 198.424 30.996 198.44 30.82C198.456 30.644 198.464 30.436 198.464 30.196C198.464 29.444 198.368 28.7 198.176 27.964C198 27.212 197.848 26.508 197.72 25.852C197.352 26.46 196.96 27.044 196.544 27.604C196.144 28.148 195.76 28.604 195.392 28.972C195.632 29.484 196 29.964 196.496 30.412C197.008 30.86 197.632 31.164 198.368 31.324ZM214.537 33.244C213.977 33.244 213.569 33.068 213.313 32.716C213.057 32.38 212.929 31.972 212.929 31.492C212.929 31.092 212.985 30.692 213.097 30.292C213.225 29.892 213.345 29.5 213.457 29.116C213.585 28.732 213.649 28.388 213.649 28.084C213.649 27.764 213.577 27.54 213.433 27.412C213.289 27.284 213.129 27.22 212.953 27.22C212.553 27.22 212.113 27.532 211.633 28.156C211.169 28.78 210.561 29.66 209.809 30.796C209.553 31.18 209.337 31.572 209.161 31.972C208.985 32.356 208.817 32.708 208.657 33.028C208.529 33.028 208.369 33.012 208.177 32.98C207.985 32.948 207.809 32.892 207.649 32.812C207.505 32.748 207.433 32.66 207.433 32.548C207.433 32.436 207.505 32.172 207.649 31.756C207.809 31.324 207.985 30.828 208.177 30.268C208.385 29.692 208.561 29.116 208.705 28.54C208.865 27.948 208.945 27.444 208.945 27.028C208.945 26.756 208.897 26.54 208.801 26.38C208.721 26.204 208.569 26.116 208.345 26.116C207.993 26.116 207.569 26.332 207.073 26.764C206.577 27.18 206.065 27.732 205.537 28.42C205.009 29.108 204.505 29.868 204.025 30.7C203.561 31.516 203.185 32.332 202.897 33.148C202.753 33.148 202.577 33.124 202.369 33.076C202.161 33.028 201.985 32.964 201.841 32.884C201.681 32.804 201.601 32.724 201.601 32.644C201.601 32.548 201.689 32.268 201.865 31.804C202.025 31.324 202.217 30.756 202.441 30.1C202.649 29.428 202.833 28.748 202.993 28.06C203.169 27.372 203.257 26.764 203.257 26.236C203.353 26.124 203.505 26.012 203.713 25.9C203.921 25.788 204.137 25.732 204.361 25.732C204.585 25.732 204.745 25.788 204.841 25.9C204.953 26.012 205.009 26.164 205.009 26.356C205.009 26.564 204.945 26.924 204.817 27.436C204.705 27.932 204.561 28.484 204.385 29.092C204.705 28.58 205.065 28.06 205.465 27.532C205.881 26.988 206.313 26.492 206.761 26.044C207.209 25.596 207.657 25.236 208.105 24.964C208.569 24.676 209.017 24.532 209.449 24.532C209.945 24.532 210.281 24.716 210.457 25.084C210.649 25.436 210.745 25.86 210.745 26.356C210.745 26.756 210.697 27.18 210.601 27.628C210.521 28.06 210.425 28.468 210.313 28.852C210.201 29.22 210.097 29.516 210.001 29.74C210.337 29.132 210.705 28.548 211.105 27.988C211.521 27.412 211.969 26.948 212.449 26.596C212.929 26.228 213.441 26.044 213.985 26.044C214.497 26.044 214.849 26.196 215.041 26.5C215.249 26.804 215.353 27.164 215.353 27.58C215.353 27.996 215.281 28.452 215.137 28.948C214.993 29.444 214.841 29.924 214.681 30.388C214.537 30.852 214.465 31.252 214.465 31.588C214.465 31.796 214.513 31.988 214.609 32.164C214.721 32.324 214.913 32.404 215.185 32.404C215.633 32.404 216.049 32.204 216.433 31.804C216.833 31.388 217.201 30.892 217.537 30.316C217.873 29.724 218.161 29.156 218.401 28.612L218.689 28.948C218.433 29.62 218.105 30.292 217.705 30.964C217.305 31.62 216.833 32.164 216.289 32.596C215.761 33.028 215.177 33.244 214.537 33.244ZM219.613 33.268C218.925 33.268 218.437 33.052 218.149 32.62C217.861 32.204 217.717 31.692 217.717 31.084C217.717 30.588 217.797 30.076 217.957 29.548C218.117 29.02 218.325 28.524 218.581 28.06C218.853 27.596 219.149 27.22 219.469 26.932C219.805 26.644 220.141 26.5 220.477 26.5C220.557 26.5 220.637 26.516 220.717 26.548C220.813 26.564 220.901 26.588 220.981 26.62C220.837 26.748 220.661 26.988 220.453 27.34C220.261 27.676 220.077 28.068 219.901 28.516C219.725 28.948 219.573 29.38 219.445 29.812C219.333 30.244 219.277 30.612 219.277 30.916C219.277 31.396 219.357 31.748 219.517 31.972C219.677 32.18 219.885 32.284 220.141 32.284C220.477 32.284 220.877 32.108 221.341 31.756C221.805 31.388 222.261 30.924 222.709 30.364C222.261 29.996 221.909 29.516 221.653 28.924C221.413 28.316 221.293 27.7 221.293 27.076C221.293 26.548 221.381 26.052 221.557 25.588C221.749 25.124 222.021 24.756 222.373 24.484C222.725 24.196 223.149 24.052 223.645 24.052C224.301 24.052 224.741 24.228 224.965 24.58C225.189 24.932 225.301 25.372 225.301 25.9C225.301 26.524 225.149 27.22 224.845 27.988C224.541 28.74 224.157 29.468 223.693 30.172C223.981 30.332 224.285 30.412 224.605 30.412C224.861 30.412 225.149 30.364 225.469 30.268C225.789 30.156 226.101 29.972 226.405 29.716C226.725 29.46 226.981 29.116 227.173 28.684L227.461 28.924C227.141 29.676 226.685 30.212 226.093 30.532C225.517 30.836 224.965 30.988 224.437 30.988C224.229 30.988 224.029 30.972 223.837 30.94C223.645 30.892 223.461 30.828 223.285 30.748C222.741 31.468 222.141 32.068 221.485 32.548C220.845 33.028 220.221 33.268 219.613 33.268ZM223.141 29.74C223.541 29.148 223.869 28.532 224.125 27.892C224.397 27.236 224.533 26.62 224.533 26.044C224.533 25.58 224.461 25.244 224.317 25.036C224.189 24.812 224.021 24.7 223.813 24.7C223.493 24.7 223.165 24.932 222.829 25.396C222.493 25.86 222.325 26.444 222.325 27.148C222.325 27.612 222.389 28.084 222.517 28.564C222.661 29.028 222.869 29.42 223.141 29.74ZM226.891 34.612C226.747 34.532 226.643 34.412 226.579 34.252C226.515 34.092 226.483 33.916 226.483 33.724C226.483 33.404 226.555 33.036 226.699 32.62C226.843 32.22 227.027 31.876 227.251 31.588C227.475 31.3 227.707 31.156 227.947 31.156C228.107 31.156 228.243 31.228 228.355 31.372C228.483 31.5 228.547 31.652 228.547 31.828C228.099 32.292 227.763 32.756 227.539 33.22C227.331 33.684 227.115 34.148 226.891 34.612ZM240.26 33.556C239.284 33.556 238.548 33.284 238.052 32.74C237.572 32.212 237.332 31.556 237.332 30.772C237.332 30.052 237.508 29.292 237.86 28.492C238.228 27.692 238.708 26.94 239.3 26.236C239.908 25.532 240.572 24.964 241.292 24.532C242.012 24.084 242.724 23.86 243.428 23.86C243.796 23.86 244.132 23.956 244.436 24.148C244.756 24.34 244.916 24.732 244.916 25.324C244.916 25.932 244.732 26.508 244.364 27.052C244.012 27.58 243.54 28.052 242.948 28.468C242.372 28.884 241.732 29.228 241.028 29.5C240.34 29.756 239.652 29.916 238.964 29.98C238.932 30.14 238.908 30.292 238.892 30.436C238.876 30.58 238.868 30.716 238.868 30.844C238.868 31.084 238.892 31.324 238.94 31.564C239.004 31.804 239.108 32.028 239.252 32.236C239.396 32.428 239.588 32.58 239.828 32.692C240.084 32.804 240.396 32.86 240.764 32.86C241.452 32.86 242.132 32.668 242.804 32.284C243.476 31.884 244.1 31.364 244.676 30.724C245.252 30.084 245.74 29.38 246.14 28.612L246.428 28.828C245.996 29.788 245.444 30.62 244.772 31.324C244.116 32.028 243.396 32.572 242.612 32.956C241.844 33.356 241.06 33.556 240.26 33.556ZM239.084 29.524C239.516 29.38 240.004 29.172 240.548 28.9C241.092 28.612 241.612 28.276 242.108 27.892C242.62 27.508 243.036 27.084 243.356 26.62C243.692 26.156 243.86 25.668 243.86 25.156C243.86 24.98 243.828 24.844 243.764 24.748C243.7 24.652 243.564 24.604 243.356 24.604C242.972 24.604 242.564 24.756 242.132 25.06C241.7 25.348 241.284 25.732 240.884 26.212C240.484 26.692 240.124 27.22 239.804 27.796C239.484 28.372 239.244 28.948 239.084 29.524ZM253.551 33.268C252.863 33.268 252.375 33.052 252.087 32.62C251.799 32.204 251.655 31.692 251.655 31.084C251.655 30.588 251.735 30.076 251.895 29.548C252.055 29.02 252.263 28.524 252.519 28.06C252.791 27.596 253.087 27.22 253.407 26.932C253.743 26.644 254.079 26.5 254.415 26.5C254.495 26.5 254.575 26.516 254.655 26.548C254.751 26.564 254.839 26.588 254.919 26.62C254.775 26.748 254.599 26.988 254.391 27.34C254.199 27.676 254.015 28.068 253.839 28.516C253.663 28.948 253.511 29.38 253.383 29.812C253.271 30.244 253.215 30.612 253.215 30.916C253.215 31.396 253.295 31.748 253.455 31.972C253.615 32.18 253.823 32.284 254.079 32.284C254.415 32.284 254.815 32.108 255.279 31.756C255.743 31.388 256.199 30.924 256.647 30.364C256.199 29.996 255.847 29.516 255.591 28.924C255.351 28.316 255.231 27.7 255.231 27.076C255.231 26.548 255.319 26.052 255.495 25.588C255.687 25.124 255.959 24.756 256.311 24.484C256.663 24.196 257.087 24.052 257.583 24.052C258.239 24.052 258.679 24.228 258.903 24.58C259.127 24.932 259.239 25.372 259.239 25.9C259.239 26.524 259.087 27.22 258.783 27.988C258.479 28.74 258.095 29.468 257.631 30.172C257.919 30.332 258.223 30.412 258.543 30.412C258.799 30.412 259.087 30.364 259.407 30.268C259.727 30.156 260.039 29.972 260.343 29.716C260.663 29.46 260.919 29.116 261.111 28.684L261.399 28.924C261.079 29.676 260.623 30.212 260.031 30.532C259.455 30.836 258.903 30.988 258.375 30.988C258.167 30.988 257.967 30.972 257.775 30.94C257.583 30.892 257.399 30.828 257.223 30.748C256.679 31.468 256.079 32.068 255.423 32.548C254.783 33.028 254.159 33.268 253.551 33.268ZM257.079 29.74C257.479 29.148 257.807 28.532 258.063 27.892C258.335 27.236 258.471 26.62 258.471 26.044C258.471 25.58 258.399 25.244 258.255 25.036C258.127 24.812 257.959 24.7 257.751 24.7C257.431 24.7 257.103 24.932 256.767 25.396C256.431 25.86 256.263 26.444 256.263 27.148C256.263 27.612 256.327 28.084 256.455 28.564C256.599 29.028 256.807 29.42 257.079 29.74ZM263.18 33.724C262.428 33.724 261.828 33.556 261.38 33.22C260.948 32.9 260.644 32.5 260.468 32.02C260.276 31.54 260.18 31.06 260.18 30.58C260.18 30.1 260.244 29.732 260.372 29.476C260.5 29.22 260.652 29.028 260.828 28.9C261.02 28.772 261.196 28.676 261.356 28.612C261.532 28.548 261.652 28.484 261.716 28.42C262.196 27.892 262.636 27.34 263.036 26.764C263.436 26.188 263.788 25.58 264.092 24.94V24.652C264.092 24.06 264.188 23.644 264.38 23.404C264.588 23.148 264.804 23.02 265.028 23.02C265.156 23.02 265.252 23.052 265.316 23.116C265.38 23.18 265.412 23.252 265.412 23.332C265.412 23.412 265.388 23.54 265.34 23.716C265.292 23.892 265.268 24.116 265.268 24.388C265.268 24.916 265.372 25.492 265.58 26.116C265.788 26.724 265.996 27.372 266.204 28.06C266.412 28.732 266.516 29.436 266.516 30.172C266.516 30.38 266.5 30.588 266.468 30.796C266.452 30.988 266.42 31.172 266.372 31.348C266.932 31.252 267.46 31.004 267.956 30.604C268.452 30.188 268.932 29.532 269.396 28.636L269.612 28.876C269.308 29.756 268.852 30.428 268.244 30.892C267.636 31.34 266.972 31.62 266.252 31.732C265.996 32.42 265.588 32.924 265.028 33.244C264.484 33.564 263.868 33.724 263.18 33.724ZM263.228 32.884C263.42 32.884 263.676 32.82 263.996 32.692C264.316 32.564 264.564 32.236 264.74 31.708C264.068 31.58 263.468 31.316 262.94 30.916C262.428 30.516 262.044 30.116 261.788 29.716C261.436 29.732 261.26 30.012 261.26 30.556C261.26 31.132 261.428 31.668 261.764 32.164C262.116 32.644 262.604 32.884 263.228 32.884ZM264.86 31.324C264.892 31.164 264.916 30.996 264.932 30.82C264.948 30.644 264.956 30.436 264.956 30.196C264.956 29.444 264.86 28.7 264.668 27.964C264.492 27.212 264.34 26.508 264.212 25.852C263.844 26.46 263.452 27.044 263.036 27.604C262.636 28.148 262.252 28.604 261.884 28.972C262.124 29.484 262.492 29.964 262.988 30.412C263.5 30.86 264.124 31.164 264.86 31.324ZM32.9451 62.268C32.2571 62.268 31.7691 62.052 31.4811 61.62C31.1931 61.204 31.0491 60.692 31.0491 60.084C31.0491 59.588 31.1291 59.076 31.2891 58.548C31.4491 58.02 31.6571 57.524 31.9131 57.06C32.1851 56.596 32.4811 56.22 32.8011 55.932C33.1371 55.644 33.4731 55.5 33.8091 55.5C33.8891 55.5 33.9691 55.516 34.0491 55.548C34.1451 55.564 34.2331 55.588 34.3131 55.62C34.1691 55.748 33.9931 55.988 33.7851 56.34C33.5931 56.676 33.4091 57.068 33.2331 57.516C33.0571 57.948 32.9051 58.38 32.7771 58.812C32.6651 59.244 32.6091 59.612 32.6091 59.916C32.6091 60.396 32.6891 60.748 32.8491 60.972C33.0091 61.18 33.2171 61.284 33.4731 61.284C33.8091 61.284 34.2091 61.108 34.6731 60.756C35.1371 60.388 35.5931 59.924 36.0411 59.364C35.5931 58.996 35.2411 58.516 34.9851 57.924C34.7451 57.316 34.6251 56.7 34.6251 56.076C34.6251 55.548 34.7131 55.052 34.8891 54.588C35.0811 54.124 35.3531 53.756 35.7051 53.484C36.0571 53.196 36.4811 53.052 36.9771 53.052C37.6331 53.052 38.0731 53.228 38.2971 53.58C38.5211 53.932 38.6331 54.372 38.6331 54.9C38.6331 55.524 38.4811 56.22 38.1771 56.988C37.8731 57.74 37.4891 58.468 37.0251 59.172C37.3131 59.332 37.6171 59.412 37.9371 59.412C38.1931 59.412 38.4811 59.364 38.8011 59.268C39.1211 59.156 39.4331 58.972 39.7371 58.716C40.0571 58.46 40.3131 58.116 40.5051 57.684L40.7931 57.924C40.4731 58.676 40.0171 59.212 39.4251 59.532C38.8491 59.836 38.2971 59.988 37.7691 59.988C37.5611 59.988 37.3611 59.972 37.1691 59.94C36.9771 59.892 36.7931 59.828 36.6171 59.748C36.0731 60.468 35.4731 61.068 34.8171 61.548C34.1771 62.028 33.5531 62.268 32.9451 62.268ZM36.4731 58.74C36.8731 58.148 37.2011 57.532 37.4571 56.892C37.7291 56.236 37.8651 55.62 37.8651 55.044C37.8651 54.58 37.7931 54.244 37.6491 54.036C37.5211 53.812 37.3531 53.7 37.1451 53.7C36.8251 53.7 36.4971 53.932 36.1611 54.396C35.8251 54.86 35.6571 55.444 35.6571 56.148C35.6571 56.612 35.7211 57.084 35.8491 57.564C35.9931 58.028 36.2011 58.42 36.4731 58.74ZM41.8547 62.22C41.3107 62.22 40.8707 61.98 40.5347 61.5C40.2147 61.004 40.0547 60.436 40.0547 59.796C40.0547 59.332 40.1267 58.796 40.2707 58.188C40.4307 57.58 40.6227 56.98 40.8467 56.388C41.0707 55.796 41.3027 55.308 41.5427 54.924C41.7827 54.54 41.9907 54.348 42.1667 54.348C42.2467 54.348 42.3827 54.396 42.5747 54.492C42.7667 54.572 42.9267 54.684 43.0547 54.828C42.8787 55.1 42.6627 55.516 42.4067 56.076C42.1507 56.636 41.9267 57.236 41.7347 57.876C41.5427 58.516 41.4467 59.108 41.4467 59.652C41.4467 59.78 41.4627 59.98 41.4947 60.252C41.5267 60.508 41.6067 60.74 41.7347 60.948C41.8627 61.156 42.0547 61.26 42.3107 61.26C42.6147 61.26 42.9267 61.108 43.2467 60.804C43.5667 60.484 43.8867 60.076 44.2067 59.58C44.5427 59.084 44.8627 58.548 45.1667 57.972C45.4707 57.396 45.7507 56.844 46.0067 56.316C46.2787 55.788 46.5027 55.348 46.6787 54.996C46.7747 55.012 46.9107 55.044 47.0867 55.092C47.2787 55.14 47.4467 55.204 47.5907 55.284C47.7507 55.364 47.8307 55.476 47.8307 55.62C47.8307 55.684 47.7507 55.9 47.5907 56.268C47.4307 56.62 47.2387 57.06 47.0147 57.588C46.8067 58.1 46.6227 58.62 46.4627 59.148C46.3027 59.676 46.2227 60.14 46.2227 60.54C46.2227 60.828 46.2787 61.06 46.3907 61.236C46.5187 61.412 46.7267 61.5 47.0147 61.5C47.3507 61.5 47.7587 61.348 48.2387 61.044C48.7187 60.74 49.2067 60.3 49.7027 59.724C50.1987 59.132 50.6387 58.428 51.0227 57.612L51.3347 57.828C50.9987 58.692 50.5587 59.46 50.0147 60.132C49.4707 60.788 48.8947 61.3 48.2867 61.668C47.6787 62.036 47.0867 62.22 46.5107 62.22C46.0947 62.22 45.7587 62.14 45.5027 61.98C45.2627 61.82 45.0867 61.604 44.9747 61.332C44.8787 61.06 44.8307 60.764 44.8307 60.444C44.8307 60.252 44.8467 60.06 44.8787 59.868C44.9107 59.66 44.9507 59.452 44.9987 59.244C44.7107 59.772 44.3987 60.268 44.0627 60.732C43.7267 61.18 43.3747 61.54 43.0067 61.812C42.6387 62.084 42.2547 62.22 41.8547 62.22ZM52.6181 62.604C51.9301 62.604 51.4021 62.404 51.0341 62.004C50.6661 61.604 50.4821 61.012 50.4821 60.228C50.4821 59.524 50.6101 58.66 50.8661 57.636C51.1381 56.596 51.4741 55.532 51.8741 54.444C51.7141 54.412 51.5621 54.388 51.4181 54.372C51.2741 54.34 51.1381 54.3 51.0101 54.252V53.82C51.1381 53.836 51.2901 53.852 51.4661 53.868C51.6421 53.884 51.8421 53.9 52.0661 53.916C52.4021 53.052 52.7621 52.22 53.1461 51.42C53.5301 50.604 53.9061 49.884 54.2741 49.26C54.6581 48.62 55.0181 48.116 55.3541 47.748C55.7061 47.364 56.0021 47.172 56.2421 47.172C56.3701 47.172 56.4821 47.22 56.5781 47.316C56.6901 47.396 56.7461 47.524 56.7461 47.7C56.7461 47.972 56.5781 48.42 56.2421 49.044C55.9061 49.652 55.4901 50.38 54.9941 51.228C54.4981 52.076 54.0181 52.996 53.5541 53.988C53.6981 53.988 53.8421 53.988 53.9861 53.988C54.1461 53.988 54.2981 53.988 54.4421 53.988C54.9701 53.988 55.5221 53.98 56.0981 53.964C56.6901 53.948 57.2821 53.908 57.8741 53.844V54.276C56.9941 54.372 56.2021 54.444 55.4981 54.492C54.8101 54.54 54.1941 54.564 53.6501 54.564C53.5861 54.564 53.5221 54.564 53.4581 54.564C53.4101 54.564 53.3541 54.564 53.2901 54.564C52.9221 55.412 52.6101 56.284 52.3541 57.18C52.0981 58.076 51.9701 58.948 51.9701 59.796C51.9701 60.484 52.0741 60.98 52.2821 61.284C52.4901 61.572 52.8341 61.716 53.3141 61.716C54.1461 61.716 54.9621 61.348 55.7621 60.612C56.5621 59.876 57.2661 58.876 57.8741 57.612L58.1861 57.852C57.8021 58.748 57.3141 59.556 56.7221 60.276C56.1461 60.996 55.5061 61.564 54.8021 61.98C54.0981 62.396 53.3701 62.604 52.6181 62.604ZM61.5739 62.124C61.0299 62.124 60.5979 61.98 60.2779 61.692C59.9739 61.404 59.8219 61.028 59.8219 60.564C59.8219 60.084 59.9339 59.58 60.1579 59.052C60.3819 58.524 60.5979 58.004 60.8059 57.492C61.0299 56.964 61.1419 56.492 61.1419 56.076C61.1419 55.564 60.9899 55.188 60.6859 54.948C60.3979 54.692 60.1019 54.46 59.7979 54.252C59.4299 55.196 59.0459 56.092 58.6459 56.94C58.2459 57.788 57.9179 58.428 57.6619 58.86L57.4459 58.452C57.6699 58.036 57.9579 57.428 58.3099 56.628C58.6779 55.828 59.0379 54.916 59.3899 53.892C59.2299 53.732 59.1499 53.54 59.1499 53.316C59.1499 52.836 59.2859 52.444 59.5579 52.14C59.8299 51.836 60.0299 51.684 60.1579 51.684C60.3339 51.684 60.4299 51.764 60.4459 51.924C60.4779 52.068 60.4939 52.18 60.4939 52.26C60.4939 52.34 60.4459 52.5 60.3499 52.74C60.2699 52.964 60.2299 53.1 60.2299 53.148C60.2299 53.372 60.3499 53.58 60.5899 53.772C60.8459 53.948 61.1339 54.156 61.4539 54.396C61.7739 54.62 62.0539 54.9 62.2939 55.236C62.5499 55.556 62.6779 55.972 62.6779 56.484C62.6779 56.964 62.5739 57.452 62.3659 57.948C62.1739 58.444 61.9739 58.916 61.7659 59.364C61.5739 59.812 61.4779 60.204 61.4779 60.54C61.4779 60.828 61.5499 61.02 61.6939 61.116C61.8379 61.212 62.0059 61.26 62.1979 61.26C62.5819 61.26 62.9739 61.14 63.3739 60.9C63.7899 60.66 64.1899 60.356 64.5739 59.988C64.9579 59.62 65.3019 59.236 65.6059 58.836C65.9099 58.42 66.1339 58.036 66.2779 57.684L66.5899 57.924C66.2859 58.596 65.8699 59.26 65.3419 59.916C64.8139 60.556 64.2219 61.084 63.5659 61.5C62.9259 61.916 62.2619 62.124 61.5739 62.124ZM67.4216 62.268C66.7336 62.268 66.2456 62.052 65.9576 61.62C65.6696 61.204 65.5256 60.692 65.5256 60.084C65.5256 59.588 65.6056 59.076 65.7656 58.548C65.9256 58.02 66.1336 57.524 66.3896 57.06C66.6616 56.596 66.9576 56.22 67.2776 55.932C67.6136 55.644 67.9496 55.5 68.2856 55.5C68.3656 55.5 68.4456 55.516 68.5256 55.548C68.6216 55.564 68.7096 55.588 68.7896 55.62C68.6456 55.748 68.4696 55.988 68.2616 56.34C68.0696 56.676 67.8856 57.068 67.7096 57.516C67.5336 57.948 67.3816 58.38 67.2536 58.812C67.1416 59.244 67.0856 59.612 67.0856 59.916C67.0856 60.396 67.1656 60.748 67.3256 60.972C67.4856 61.18 67.6936 61.284 67.9496 61.284C68.2856 61.284 68.6856 61.108 69.1496 60.756C69.6136 60.388 70.0696 59.924 70.5176 59.364C70.0696 58.996 69.7176 58.516 69.4616 57.924C69.2216 57.316 69.1016 56.7 69.1016 56.076C69.1016 55.548 69.1896 55.052 69.3656 54.588C69.5576 54.124 69.8296 53.756 70.1816 53.484C70.5336 53.196 70.9576 53.052 71.4536 53.052C72.1096 53.052 72.5496 53.228 72.7736 53.58C72.9976 53.932 73.1096 54.372 73.1096 54.9C73.1096 55.524 72.9576 56.22 72.6536 56.988C72.3496 57.74 71.9656 58.468 71.5016 59.172C71.7896 59.332 72.0936 59.412 72.4136 59.412C72.6696 59.412 72.9576 59.364 73.2776 59.268C73.5976 59.156 73.9096 58.972 74.2136 58.716C74.5336 58.46 74.7896 58.116 74.9816 57.684L75.2696 57.924C74.9496 58.676 74.4936 59.212 73.9016 59.532C73.3256 59.836 72.7736 59.988 72.2456 59.988C72.0376 59.988 71.8376 59.972 71.6456 59.94C71.4536 59.892 71.2696 59.828 71.0936 59.748C70.5496 60.468 69.9496 61.068 69.2936 61.548C68.6536 62.028 68.0296 62.268 67.4216 62.268ZM70.9496 58.74C71.3496 58.148 71.6776 57.532 71.9336 56.892C72.2056 56.236 72.3416 55.62 72.3416 55.044C72.3416 54.58 72.2696 54.244 72.1256 54.036C71.9976 53.812 71.8296 53.7 71.6216 53.7C71.3016 53.7 70.9736 53.932 70.6376 54.396C70.3016 54.86 70.1336 55.444 70.1336 56.148C70.1336 56.612 70.1976 57.084 70.3256 57.564C70.4696 58.028 70.6776 58.42 70.9496 58.74ZM77.0513 62.724C76.2993 62.724 75.6993 62.556 75.2513 62.22C74.8193 61.9 74.5152 61.5 74.3392 61.02C74.1472 60.54 74.0512 60.06 74.0512 59.58C74.0512 59.1 74.1152 58.732 74.2432 58.476C74.3712 58.22 74.5232 58.028 74.6993 57.9C74.8913 57.772 75.0673 57.676 75.2273 57.612C75.4033 57.548 75.5233 57.484 75.5873 57.42C76.0673 56.892 76.5073 56.34 76.9073 55.764C77.3073 55.188 77.6593 54.58 77.9633 53.94V53.652C77.9633 53.06 78.0593 52.644 78.2513 52.404C78.4593 52.148 78.6753 52.02 78.8993 52.02C79.0273 52.02 79.1233 52.052 79.1873 52.116C79.2513 52.18 79.2833 52.252 79.2833 52.332C79.2833 52.412 79.2593 52.54 79.2113 52.716C79.1633 52.892 79.1393 53.116 79.1393 53.388C79.1393 53.916 79.2433 54.492 79.4513 55.116C79.6593 55.724 79.8673 56.372 80.0753 57.06C80.2833 57.732 80.3873 58.436 80.3873 59.172C80.3873 59.38 80.3713 59.588 80.3393 59.796C80.3233 59.988 80.2913 60.172 80.2433 60.348C80.8033 60.252 81.3313 60.004 81.8273 59.604C82.3233 59.188 82.8033 58.532 83.2673 57.636L83.4833 57.876C83.1793 58.756 82.7233 59.428 82.1153 59.892C81.5073 60.34 80.8433 60.62 80.1233 60.732C79.8673 61.42 79.4593 61.924 78.8993 62.244C78.3553 62.564 77.7393 62.724 77.0513 62.724ZM77.0993 61.884C77.2913 61.884 77.5473 61.82 77.8673 61.692C78.1873 61.564 78.4353 61.236 78.6113 60.708C77.9393 60.58 77.3393 60.316 76.8113 59.916C76.2993 59.516 75.9153 59.116 75.6593 58.716C75.3073 58.732 75.1313 59.012 75.1313 59.556C75.1313 60.132 75.2993 60.668 75.6353 61.164C75.9873 61.644 76.4753 61.884 77.0993 61.884ZM78.7313 60.324C78.7633 60.164 78.7873 59.996 78.8033 59.82C78.8193 59.644 78.8273 59.436 78.8273 59.196C78.8273 58.444 78.7313 57.7 78.5393 56.964C78.3633 56.212 78.2113 55.508 78.0833 54.852C77.7153 55.46 77.3233 56.044 76.9073 56.604C76.5073 57.148 76.1233 57.604 75.7553 57.972C75.9953 58.484 76.3633 58.964 76.8593 59.412C77.3713 59.86 77.9953 60.164 78.7313 60.324ZM91.0791 62.604C90.3911 62.604 89.8631 62.404 89.4951 62.004C89.1271 61.604 88.9431 61.012 88.9431 60.228C88.9431 59.524 89.0711 58.66 89.3271 57.636C89.5991 56.596 89.9351 55.532 90.3351 54.444C90.1751 54.412 90.0231 54.388 89.8791 54.372C89.7351 54.34 89.5991 54.3 89.4711 54.252V53.82C89.5991 53.836 89.7511 53.852 89.9271 53.868C90.1031 53.884 90.3031 53.9 90.5271 53.916C90.8631 53.052 91.2231 52.22 91.6071 51.42C91.9911 50.604 92.3671 49.884 92.7351 49.26C93.1191 48.62 93.4791 48.116 93.8151 47.748C94.1671 47.364 94.4631 47.172 94.7031 47.172C94.8311 47.172 94.9431 47.22 95.0391 47.316C95.1511 47.396 95.2071 47.524 95.2071 47.7C95.2071 47.972 95.0391 48.42 94.7031 49.044C94.3671 49.652 93.9511 50.38 93.4551 51.228C92.9591 52.076 92.4791 52.996 92.0151 53.988C92.1591 53.988 92.3031 53.988 92.4471 53.988C92.6071 53.988 92.7591 53.988 92.9031 53.988C93.4311 53.988 93.9831 53.98 94.5591 53.964C95.1511 53.948 95.7431 53.908 96.3351 53.844V54.276C95.4551 54.372 94.6631 54.444 93.9591 54.492C93.2711 54.54 92.6551 54.564 92.1111 54.564C92.0471 54.564 91.9831 54.564 91.9191 54.564C91.8711 54.564 91.8151 54.564 91.7511 54.564C91.3831 55.412 91.0711 56.284 90.8151 57.18C90.5591 58.076 90.4311 58.948 90.4311 59.796C90.4311 60.484 90.5351 60.98 90.7431 61.284C90.9511 61.572 91.2951 61.716 91.7751 61.716C92.6071 61.716 93.4231 61.348 94.2231 60.612C95.0231 59.876 95.7271 58.876 96.3351 57.612L96.6471 57.852C96.2631 58.748 95.7751 59.556 95.1831 60.276C94.6071 60.996 93.9671 61.564 93.2631 61.98C92.5591 62.396 91.8311 62.604 91.0791 62.604ZM97.0348 62.628C96.5388 62.628 96.1228 62.46 95.7868 62.124C95.4348 61.804 95.2588 61.308 95.2588 60.636C95.2588 60.06 95.3868 59.444 95.6428 58.788C95.8988 58.116 96.2508 57.46 96.6988 56.82C97.1468 56.164 97.6508 55.572 98.2108 55.044C98.7868 54.5 99.3868 54.068 100.011 53.748C100.651 53.428 101.283 53.268 101.907 53.268C102.531 53.268 103.051 53.436 103.467 53.772C103.883 54.092 104.091 54.524 104.091 55.068C104.091 55.468 103.979 55.74 103.755 55.884C103.547 56.028 103.267 56.1 102.915 56.1C102.947 55.972 102.971 55.836 102.987 55.692C103.019 55.532 103.035 55.388 103.035 55.26C103.035 54.892 102.947 54.58 102.771 54.324C102.595 54.052 102.291 53.916 101.859 53.916C101.411 53.916 100.955 54.076 100.491 54.396C100.027 54.7 99.5788 55.116 99.1468 55.644C98.7148 56.156 98.3308 56.716 97.9948 57.324C97.6588 57.932 97.3948 58.532 97.2028 59.124C97.0108 59.716 96.9148 60.244 96.9148 60.708C96.9148 61.332 97.1308 61.644 97.5628 61.644C97.9308 61.644 98.3308 61.476 98.7628 61.14C99.1948 60.788 99.6348 60.348 100.083 59.82C100.547 59.276 100.987 58.716 101.403 58.14C101.819 57.564 102.187 57.036 102.507 56.556C102.571 56.46 102.611 56.412 102.627 56.412C102.723 56.428 102.843 56.46 102.987 56.508C103.147 56.556 103.283 56.62 103.395 56.7C103.507 56.78 103.563 56.884 103.563 57.012C103.563 57.156 103.491 57.356 103.347 57.612C103.203 57.852 103.043 58.132 102.867 58.452C102.691 58.772 102.531 59.1 102.387 59.436C102.243 59.756 102.171 60.06 102.171 60.348C102.171 60.588 102.235 60.828 102.363 61.068C102.491 61.292 102.699 61.404 102.987 61.404C103.419 61.404 103.987 61.092 104.691 60.468C105.395 59.828 106.107 58.876 106.827 57.612L107.067 57.852C106.731 58.716 106.299 59.476 105.771 60.132C105.243 60.788 104.675 61.3 104.067 61.668C103.475 62.036 102.891 62.22 102.315 62.22C101.723 62.22 101.283 62.044 100.995 61.692C100.723 61.34 100.587 60.956 100.587 60.54C100.587 60.444 100.595 60.34 100.611 60.228C100.627 60.1 100.643 59.972 100.659 59.844C99.9708 60.772 99.3388 61.468 98.7628 61.932C98.2028 62.396 97.6268 62.628 97.0348 62.628ZM118.432 62.244C117.872 62.244 117.464 62.068 117.208 61.716C116.952 61.38 116.824 60.972 116.824 60.492C116.824 60.092 116.88 59.692 116.992 59.292C117.12 58.892 117.24 58.5 117.352 58.116C117.48 57.732 117.544 57.388 117.544 57.084C117.544 56.764 117.472 56.54 117.328 56.412C117.184 56.284 117.024 56.22 116.848 56.22C116.448 56.22 116.008 56.532 115.528 57.156C115.064 57.78 114.456 58.66 113.704 59.796C113.448 60.18 113.232 60.572 113.056 60.972C112.88 61.356 112.712 61.708 112.552 62.028C112.424 62.028 112.264 62.012 112.072 61.98C111.88 61.948 111.704 61.892 111.544 61.812C111.4 61.748 111.328 61.66 111.328 61.548C111.328 61.436 111.4 61.172 111.544 60.756C111.704 60.324 111.88 59.828 112.072 59.268C112.28 58.692 112.456 58.116 112.6 57.54C112.76 56.948 112.84 56.444 112.84 56.028C112.84 55.756 112.792 55.54 112.696 55.38C112.616 55.204 112.464 55.116 112.24 55.116C111.888 55.116 111.464 55.332 110.968 55.764C110.472 56.18 109.96 56.732 109.432 57.42C108.904 58.108 108.4 58.868 107.92 59.7C107.456 60.516 107.08 61.332 106.792 62.148C106.648 62.148 106.472 62.124 106.264 62.076C106.056 62.028 105.88 61.964 105.736 61.884C105.576 61.804 105.496 61.724 105.496 61.644C105.496 61.548 105.584 61.268 105.76 60.804C105.92 60.324 106.112 59.756 106.336 59.1C106.544 58.428 106.728 57.748 106.888 57.06C107.064 56.372 107.152 55.764 107.152 55.236C107.248 55.124 107.4 55.012 107.608 54.9C107.816 54.788 108.032 54.732 108.256 54.732C108.48 54.732 108.64 54.788 108.736 54.9C108.848 55.012 108.904 55.164 108.904 55.356C108.904 55.564 108.84 55.924 108.712 56.436C108.6 56.932 108.456 57.484 108.28 58.092C108.6 57.58 108.96 57.06 109.36 56.532C109.776 55.988 110.208 55.492 110.656 55.044C111.104 54.596 111.552 54.236 112 53.964C112.464 53.676 112.912 53.532 113.344 53.532C113.84 53.532 114.176 53.716 114.352 54.084C114.544 54.436 114.64 54.86 114.64 55.356C114.64 55.756 114.592 56.18 114.496 56.628C114.416 57.06 114.32 57.468 114.208 57.852C114.096 58.22 113.992 58.516 113.896 58.74C114.232 58.132 114.6 57.548 115 56.988C115.416 56.412 115.864 55.948 116.344 55.596C116.824 55.228 117.336 55.044 117.88 55.044C118.392 55.044 118.744 55.196 118.936 55.5C119.144 55.804 119.248 56.164 119.248 56.58C119.248 56.996 119.176 57.452 119.032 57.948C118.888 58.444 118.736 58.924 118.576 59.388C118.432 59.852 118.36 60.252 118.36 60.588C118.36 60.796 118.408 60.988 118.504 61.164C118.616 61.324 118.808 61.404 119.08 61.404C119.528 61.404 119.944 61.204 120.328 60.804C120.728 60.388 121.096 59.892 121.432 59.316C121.768 58.724 122.056 58.156 122.296 57.612L122.584 57.948C122.328 58.62 122 59.292 121.6 59.964C121.2 60.62 120.728 61.164 120.184 61.596C119.656 62.028 119.072 62.244 118.432 62.244ZM124.084 63.252C123.252 63.252 122.628 62.98 122.212 62.436C121.812 61.892 121.612 61.156 121.612 60.228C121.612 59.428 121.748 58.484 122.02 57.396C122.292 56.308 122.652 55.172 123.1 53.988C123.548 52.788 124.044 51.62 124.588 50.484C125.148 49.348 125.708 48.324 126.268 47.412C126.828 46.484 127.356 45.748 127.852 45.204C128.348 44.644 128.756 44.364 129.076 44.364C129.348 44.364 129.54 44.532 129.652 44.868C129.78 45.204 129.844 45.54 129.844 45.876C129.844 46.324 129.748 46.868 129.556 47.508C129.364 48.148 129.092 48.836 128.74 49.572C128.388 50.292 127.98 51.004 127.516 51.708C127.052 52.412 126.548 53.06 126.004 53.652C125.476 54.228 124.932 54.684 124.372 55.02C124.276 55.196 124.132 55.564 123.94 56.124C123.764 56.668 123.596 57.3 123.436 58.02C123.292 58.724 123.22 59.412 123.22 60.084C123.22 60.74 123.316 61.276 123.508 61.692C123.716 62.124 124.06 62.34 124.54 62.34C125.004 62.34 125.484 62.148 125.98 61.764C126.476 61.396 126.876 60.916 127.18 60.324C126.588 60.02 126.148 59.58 125.86 59.004C125.572 58.412 125.428 57.82 125.428 57.228C125.428 56.46 125.628 55.844 126.028 55.38C126.428 54.916 126.9 54.684 127.444 54.684C127.908 54.684 128.276 54.876 128.548 55.26C128.82 55.628 128.956 56.172 128.956 56.892C128.956 57.42 128.884 57.964 128.74 58.524C128.596 59.084 128.388 59.628 128.116 60.156C128.212 60.172 128.308 60.188 128.404 60.204C128.516 60.22 128.628 60.228 128.74 60.228C129.316 60.228 129.796 60.092 130.18 59.82C130.564 59.532 130.884 59.188 131.14 58.788C131.412 58.372 131.636 57.98 131.812 57.612L132.1 57.924C131.652 59.028 131.116 59.764 130.492 60.132C129.884 60.484 129.276 60.66 128.668 60.66C128.54 60.66 128.412 60.652 128.284 60.636C128.156 60.62 128.028 60.604 127.9 60.588C127.468 61.324 126.932 61.948 126.292 62.46C125.668 62.988 124.932 63.252 124.084 63.252ZM127.42 59.844C127.596 59.476 127.732 59.092 127.828 58.692C127.924 58.276 127.972 57.852 127.972 57.42C127.972 56.86 127.892 56.42 127.732 56.1C127.588 55.78 127.404 55.62 127.18 55.62C126.94 55.62 126.724 55.788 126.532 56.124C126.356 56.444 126.268 56.852 126.268 57.348C126.268 57.78 126.356 58.236 126.532 58.716C126.708 59.196 127.004 59.572 127.42 59.844ZM124.636 54.084C125.084 53.732 125.516 53.284 125.932 52.74C126.364 52.196 126.764 51.62 127.132 51.012C127.5 50.388 127.828 49.78 128.116 49.188C128.404 48.596 128.628 48.06 128.788 47.58C128.948 47.1 129.028 46.74 129.028 46.5C129.028 46.42 129.02 46.372 129.004 46.356C128.988 46.324 128.964 46.308 128.932 46.308C128.804 46.308 128.556 46.54 128.188 47.004C127.836 47.452 127.436 48.06 126.988 48.828C126.556 49.58 126.124 50.42 125.692 51.348C125.26 52.26 124.908 53.172 124.636 54.084ZM133.889 62.556C132.913 62.556 132.177 62.284 131.681 61.74C131.201 61.212 130.961 60.556 130.961 59.772C130.961 59.052 131.137 58.292 131.489 57.492C131.857 56.692 132.337 55.94 132.929 55.236C133.537 54.532 134.201 53.964 134.921 53.532C135.641 53.084 136.353 52.86 137.057 52.86C137.425 52.86 137.761 52.956 138.065 53.148C138.385 53.34 138.545 53.732 138.545 54.324C138.545 54.932 138.361 55.508 137.993 56.052C137.641 56.58 137.169 57.052 136.577 57.468C136.001 57.884 135.361 58.228 134.657 58.5C133.969 58.756 133.281 58.916 132.593 58.98C132.561 59.14 132.537 59.292 132.521 59.436C132.505 59.58 132.497 59.716 132.497 59.844C132.497 60.084 132.521 60.324 132.569 60.564C132.633 60.804 132.737 61.028 132.881 61.236C133.025 61.428 133.217 61.58 133.457 61.692C133.713 61.804 134.025 61.86 134.393 61.86C135.081 61.86 135.761 61.668 136.433 61.284C137.105 60.884 137.729 60.364 138.305 59.724C138.881 59.084 139.369 58.38 139.769 57.612L140.057 57.828C139.625 58.788 139.073 59.62 138.401 60.324C137.745 61.028 137.025 61.572 136.241 61.956C135.473 62.356 134.689 62.556 133.889 62.556ZM132.713 58.524C133.145 58.38 133.633 58.172 134.177 57.9C134.721 57.612 135.241 57.276 135.737 56.892C136.249 56.508 136.665 56.084 136.985 55.62C137.321 55.156 137.489 54.668 137.489 54.156C137.489 53.98 137.457 53.844 137.393 53.748C137.329 53.652 137.193 53.604 136.985 53.604C136.601 53.604 136.193 53.756 135.761 54.06C135.329 54.348 134.913 54.732 134.513 55.212C134.113 55.692 133.753 56.22 133.433 56.796C133.113 57.372 132.873 57.948 132.713 58.524ZM137.609 51.468C137.497 51.404 137.409 51.3 137.345 51.156C137.297 51.012 137.273 50.908 137.273 50.844C137.273 50.7 137.353 50.476 137.513 50.172C137.689 49.852 137.905 49.524 138.161 49.188C138.417 48.836 138.689 48.54 138.977 48.3C139.265 48.06 139.529 47.94 139.769 47.94C139.897 47.94 140.009 47.996 140.105 48.108C140.217 48.204 140.281 48.396 140.297 48.684C139.721 49.18 139.217 49.652 138.785 50.1C138.353 50.548 137.961 51.004 137.609 51.468ZM151.385 62.244C150.825 62.244 150.417 62.068 150.161 61.716C149.905 61.38 149.777 60.972 149.777 60.492C149.777 60.092 149.833 59.692 149.945 59.292C150.073 58.892 150.193 58.5 150.305 58.116C150.433 57.732 150.497 57.388 150.497 57.084C150.497 56.764 150.425 56.54 150.281 56.412C150.137 56.284 149.977 56.22 149.801 56.22C149.401 56.22 148.961 56.532 148.481 57.156C148.017 57.78 147.409 58.66 146.657 59.796C146.401 60.18 146.185 60.572 146.009 60.972C145.833 61.356 145.665 61.708 145.505 62.028C145.377 62.028 145.217 62.012 145.025 61.98C144.833 61.948 144.657 61.892 144.497 61.812C144.353 61.748 144.281 61.66 144.281 61.548C144.281 61.436 144.353 61.172 144.497 60.756C144.657 60.324 144.833 59.828 145.025 59.268C145.233 58.692 145.409 58.116 145.553 57.54C145.713 56.948 145.793 56.444 145.793 56.028C145.793 55.756 145.745 55.54 145.649 55.38C145.569 55.204 145.417 55.116 145.193 55.116C144.841 55.116 144.417 55.332 143.921 55.764C143.425 56.18 142.913 56.732 142.385 57.42C141.857 58.108 141.353 58.868 140.873 59.7C140.409 60.516 140.033 61.332 139.745 62.148C139.601 62.148 139.425 62.124 139.217 62.076C139.009 62.028 138.833 61.964 138.689 61.884C138.529 61.804 138.449 61.724 138.449 61.644C138.449 61.548 138.537 61.268 138.713 60.804C138.873 60.324 139.065 59.756 139.289 59.1C139.497 58.428 139.681 57.748 139.841 57.06C140.017 56.372 140.105 55.764 140.105 55.236C140.201 55.124 140.353 55.012 140.561 54.9C140.769 54.788 140.985 54.732 141.209 54.732C141.433 54.732 141.593 54.788 141.689 54.9C141.801 55.012 141.857 55.164 141.857 55.356C141.857 55.564 141.793 55.924 141.665 56.436C141.553 56.932 141.409 57.484 141.233 58.092C141.553 57.58 141.913 57.06 142.313 56.532C142.729 55.988 143.161 55.492 143.609 55.044C144.057 54.596 144.505 54.236 144.953 53.964C145.417 53.676 145.865 53.532 146.297 53.532C146.793 53.532 147.129 53.716 147.305 54.084C147.497 54.436 147.593 54.86 147.593 55.356C147.593 55.756 147.545 56.18 147.449 56.628C147.369 57.06 147.273 57.468 147.161 57.852C147.049 58.22 146.945 58.516 146.849 58.74C147.185 58.132 147.553 57.548 147.953 56.988C148.369 56.412 148.817 55.948 149.297 55.596C149.777 55.228 150.289 55.044 150.833 55.044C151.345 55.044 151.697 55.196 151.889 55.5C152.097 55.804 152.201 56.164 152.201 56.58C152.201 56.996 152.129 57.452 151.985 57.948C151.841 58.444 151.689 58.924 151.529 59.388C151.385 59.852 151.313 60.252 151.313 60.588C151.313 60.796 151.361 60.988 151.457 61.164C151.569 61.324 151.761 61.404 152.033 61.404C152.481 61.404 152.897 61.204 153.281 60.804C153.681 60.388 154.049 59.892 154.385 59.316C154.721 58.724 155.009 58.156 155.249 57.612L155.537 57.948C155.281 58.62 154.953 59.292 154.553 59.964C154.153 60.62 153.681 61.164 153.137 61.596C152.609 62.028 152.025 62.244 151.385 62.244ZM162.191 62.628C161.695 62.628 161.279 62.46 160.943 62.124C160.591 61.804 160.415 61.308 160.415 60.636C160.415 60.06 160.543 59.444 160.799 58.788C161.055 58.116 161.407 57.46 161.855 56.82C162.303 56.164 162.807 55.572 163.367 55.044C163.943 54.5 164.543 54.068 165.167 53.748C165.807 53.428 166.439 53.268 167.063 53.268C167.687 53.268 168.207 53.436 168.623 53.772C169.039 54.092 169.247 54.524 169.247 55.068C169.247 55.468 169.135 55.74 168.911 55.884C168.703 56.028 168.423 56.1 168.071 56.1C168.103 55.972 168.127 55.836 168.143 55.692C168.175 55.532 168.191 55.388 168.191 55.26C168.191 54.892 168.103 54.58 167.927 54.324C167.751 54.052 167.447 53.916 167.015 53.916C166.567 53.916 166.111 54.076 165.647 54.396C165.183 54.7 164.735 55.116 164.303 55.644C163.871 56.156 163.487 56.716 163.151 57.324C162.815 57.932 162.551 58.532 162.359 59.124C162.167 59.716 162.071 60.244 162.071 60.708C162.071 61.332 162.287 61.644 162.719 61.644C163.087 61.644 163.487 61.476 163.919 61.14C164.351 60.788 164.791 60.348 165.239 59.82C165.703 59.276 166.143 58.716 166.559 58.14C166.975 57.564 167.343 57.036 167.663 56.556C167.727 56.46 167.767 56.412 167.783 56.412C167.879 56.428 167.999 56.46 168.143 56.508C168.303 56.556 168.439 56.62 168.551 56.7C168.663 56.78 168.719 56.884 168.719 57.012C168.719 57.156 168.647 57.356 168.503 57.612C168.359 57.852 168.199 58.132 168.023 58.452C167.847 58.772 167.687 59.1 167.543 59.436C167.399 59.756 167.327 60.06 167.327 60.348C167.327 60.588 167.391 60.828 167.519 61.068C167.647 61.292 167.855 61.404 168.143 61.404C168.575 61.404 169.143 61.092 169.847 60.468C170.551 59.828 171.263 58.876 171.983 57.612L172.223 57.852C171.887 58.716 171.455 59.476 170.927 60.132C170.399 60.788 169.831 61.3 169.223 61.668C168.631 62.036 168.047 62.22 167.471 62.22C166.879 62.22 166.439 62.044 166.151 61.692C165.879 61.34 165.743 60.956 165.743 60.54C165.743 60.444 165.751 60.34 165.767 60.228C165.783 60.1 165.799 59.972 165.815 59.844C165.127 60.772 164.495 61.468 163.919 61.932C163.359 62.396 162.783 62.628 162.191 62.628ZM174.06 62.844C173.292 62.844 172.652 62.588 172.14 62.076C171.628 61.564 171.372 60.796 171.372 59.772C171.372 58.972 171.524 58.196 171.828 57.444C172.148 56.676 172.564 55.988 173.076 55.38C173.588 54.772 174.156 54.292 174.78 53.94C175.404 53.572 176.02 53.388 176.628 53.388C177.284 53.388 177.732 53.58 177.972 53.964C178.212 54.348 178.332 54.748 178.332 55.164C178.332 55.628 178.22 56.036 177.996 56.388C177.788 56.74 177.5 56.916 177.132 56.916C176.86 56.916 176.628 56.796 176.436 56.556C176.676 56.428 176.884 56.172 177.06 55.788C177.236 55.388 177.324 55.012 177.324 54.66C177.324 54.468 177.284 54.324 177.204 54.228C177.14 54.116 177.004 54.06 176.796 54.06C176.364 54.06 175.916 54.252 175.452 54.636C175.004 55.02 174.58 55.516 174.18 56.124C173.796 56.732 173.476 57.372 173.22 58.044C172.98 58.716 172.86 59.348 172.86 59.94C172.86 60.436 172.98 60.892 173.22 61.308C173.46 61.724 173.924 61.932 174.612 61.932C175.252 61.932 175.892 61.756 176.532 61.404C177.188 61.052 177.796 60.548 178.356 59.892C178.916 59.236 179.364 58.468 179.7 57.588L180.012 57.828C179.644 58.788 179.14 59.652 178.5 60.42C177.86 61.172 177.156 61.764 176.388 62.196C175.62 62.628 174.844 62.844 174.06 62.844ZM183.402 62.124C182.858 62.124 182.426 61.98 182.106 61.692C181.802 61.404 181.65 61.028 181.65 60.564C181.65 60.084 181.762 59.58 181.986 59.052C182.21 58.524 182.426 58.004 182.634 57.492C182.858 56.964 182.97 56.492 182.97 56.076C182.97 55.564 182.818 55.188 182.514 54.948C182.226 54.692 181.93 54.46 181.626 54.252C181.258 55.196 180.874 56.092 180.474 56.94C180.074 57.788 179.746 58.428 179.49 58.86L179.274 58.452C179.498 58.036 179.786 57.428 180.138 56.628C180.506 55.828 180.866 54.916 181.218 53.892C181.058 53.732 180.978 53.54 180.978 53.316C180.978 52.836 181.114 52.444 181.386 52.14C181.658 51.836 181.858 51.684 181.986 51.684C182.162 51.684 182.258 51.764 182.274 51.924C182.306 52.068 182.322 52.18 182.322 52.26C182.322 52.34 182.274 52.5 182.178 52.74C182.098 52.964 182.058 53.1 182.058 53.148C182.058 53.372 182.178 53.58 182.418 53.772C182.674 53.948 182.962 54.156 183.282 54.396C183.602 54.62 183.882 54.9 184.122 55.236C184.378 55.556 184.506 55.972 184.506 56.484C184.506 56.964 184.402 57.452 184.194 57.948C184.002 58.444 183.802 58.916 183.594 59.364C183.402 59.812 183.306 60.204 183.306 60.54C183.306 60.828 183.378 61.02 183.522 61.116C183.666 61.212 183.834 61.26 184.026 61.26C184.41 61.26 184.802 61.14 185.202 60.9C185.618 60.66 186.018 60.356 186.402 59.988C186.786 59.62 187.13 59.236 187.434 58.836C187.738 58.42 187.962 58.036 188.106 57.684L188.418 57.924C188.114 58.596 187.698 59.26 187.17 59.916C186.642 60.556 186.05 61.084 185.394 61.5C184.754 61.916 184.09 62.124 183.402 62.124ZM190.186 62.556C189.21 62.556 188.474 62.284 187.978 61.74C187.498 61.212 187.258 60.556 187.258 59.772C187.258 59.052 187.434 58.292 187.786 57.492C188.154 56.692 188.634 55.94 189.226 55.236C189.834 54.532 190.498 53.964 191.218 53.532C191.938 53.084 192.65 52.86 193.354 52.86C193.722 52.86 194.058 52.956 194.362 53.148C194.682 53.34 194.842 53.732 194.842 54.324C194.842 54.932 194.658 55.508 194.29 56.052C193.938 56.58 193.466 57.052 192.874 57.468C192.298 57.884 191.658 58.228 190.954 58.5C190.266 58.756 189.578 58.916 188.89 58.98C188.858 59.14 188.834 59.292 188.818 59.436C188.802 59.58 188.794 59.716 188.794 59.844C188.794 60.084 188.818 60.324 188.866 60.564C188.93 60.804 189.034 61.028 189.178 61.236C189.322 61.428 189.514 61.58 189.754 61.692C190.01 61.804 190.322 61.86 190.69 61.86C191.378 61.86 192.058 61.668 192.73 61.284C193.402 60.884 194.026 60.364 194.602 59.724C195.178 59.084 195.666 58.38 196.066 57.612L196.354 57.828C195.922 58.788 195.37 59.62 194.698 60.324C194.042 61.028 193.322 61.572 192.538 61.956C191.77 62.356 190.986 62.556 190.186 62.556ZM189.01 58.524C189.442 58.38 189.93 58.172 190.474 57.9C191.018 57.612 191.538 57.276 192.034 56.892C192.546 56.508 192.962 56.084 193.282 55.62C193.618 55.156 193.786 54.668 193.786 54.156C193.786 53.98 193.754 53.844 193.69 53.748C193.626 53.652 193.49 53.604 193.282 53.604C192.898 53.604 192.49 53.756 192.058 54.06C191.626 54.348 191.21 54.732 190.81 55.212C190.41 55.692 190.05 56.22 189.73 56.796C189.41 57.372 189.17 57.948 189.01 58.524ZM197.002 62.22C196.73 62.22 196.45 62.148 196.162 62.004C195.89 61.876 195.666 61.66 195.49 61.356C195.298 61.052 195.202 60.668 195.202 60.204C195.202 59.676 195.33 59.084 195.586 58.428C195.842 57.772 196.186 57.124 196.618 56.484C197.05 55.828 197.546 55.228 198.106 54.684C198.666 54.124 199.25 53.684 199.858 53.364C200.466 53.028 201.066 52.86 201.658 52.86C201.994 52.86 202.25 52.924 202.426 53.052C202.618 53.164 202.714 53.348 202.714 53.604C202.714 53.668 202.706 53.724 202.69 53.772C202.69 53.82 202.682 53.876 202.666 53.94C202.586 53.812 202.466 53.724 202.306 53.676C202.162 53.612 201.978 53.58 201.754 53.58C201.242 53.58 200.738 53.74 200.242 54.06C199.762 54.364 199.314 54.772 198.898 55.284C198.498 55.78 198.146 56.316 197.842 56.892C197.538 57.468 197.298 58.028 197.122 58.572C196.962 59.1 196.882 59.548 196.882 59.916C196.882 60.268 196.962 60.548 197.122 60.756C197.282 60.964 197.49 61.068 197.746 61.068C198.178 61.068 198.698 60.796 199.306 60.252C199.93 59.708 200.562 58.94 201.202 57.948C201.842 56.956 202.418 55.796 202.93 54.468C203.282 53.54 203.642 52.596 204.01 51.636C204.394 50.676 204.778 49.756 205.162 48.876C205.546 47.98 205.914 47.188 206.266 46.5C206.634 45.796 206.978 45.244 207.298 44.844C207.634 44.428 207.93 44.22 208.186 44.22C208.314 44.22 208.426 44.276 208.522 44.388C208.618 44.484 208.666 44.612 208.666 44.772C208.666 45.028 208.53 45.468 208.258 46.092C208.002 46.7 207.658 47.436 207.226 48.3C206.81 49.148 206.37 50.076 205.906 51.084C205.442 52.092 204.994 53.116 204.562 54.156C204.146 55.196 203.802 56.204 203.53 57.18C203.274 58.14 203.146 59.02 203.146 59.82C203.146 60.268 203.17 60.604 203.218 60.828C203.266 61.052 203.426 61.164 203.698 61.164C204.034 61.164 204.426 61.02 204.874 60.732C205.322 60.444 205.77 60.036 206.218 59.508C206.666 58.98 207.058 58.348 207.394 57.612L207.682 57.828C207.378 58.644 206.962 59.38 206.434 60.036C205.906 60.676 205.338 61.18 204.73 61.548C204.138 61.932 203.57 62.124 203.026 62.124C202.434 62.124 202.018 61.924 201.778 61.524C201.554 61.14 201.442 60.74 201.442 60.324C201.442 60.052 201.482 59.692 201.562 59.244C201.642 58.796 201.754 58.3 201.898 57.756C201.386 58.604 200.842 59.372 200.266 60.06C199.69 60.732 199.122 61.26 198.562 61.644C198.018 62.028 197.498 62.22 197.002 62.22ZM208.658 62.124C208.034 62.124 207.57 61.924 207.266 61.524C206.962 61.14 206.81 60.668 206.81 60.108C206.81 59.74 206.874 59.276 207.002 58.716C207.146 58.156 207.33 57.572 207.554 56.964C207.778 56.34 208.034 55.756 208.322 55.212C208.626 54.668 208.946 54.228 209.282 53.892C209.618 53.54 209.946 53.364 210.266 53.364C210.41 53.364 210.53 53.412 210.626 53.508C210.738 53.588 210.794 53.716 210.794 53.892C210.794 54.084 210.666 54.396 210.41 54.828C210.17 55.26 209.882 55.756 209.546 56.316C209.21 56.876 208.914 57.468 208.658 58.092C208.418 58.7 208.298 59.284 208.298 59.844C208.298 60.42 208.394 60.804 208.586 60.996C208.778 61.188 209.074 61.284 209.474 61.284C210.018 61.284 210.594 61.012 211.202 60.468C211.826 59.924 212.482 58.972 213.17 57.612L213.386 57.852C212.922 59.228 212.25 60.284 211.37 61.02C210.506 61.756 209.602 62.124 208.658 62.124ZM211.538 51.132C211.282 51.132 211.05 51.068 210.842 50.94C210.65 50.812 210.554 50.612 210.554 50.34C210.554 50.004 210.746 49.716 211.13 49.476C211.53 49.22 211.922 49.092 212.306 49.092C212.546 49.092 212.738 49.148 212.882 49.26C213.026 49.372 213.098 49.564 213.098 49.836C213.098 50.14 212.93 50.436 212.594 50.724C212.274 50.996 211.922 51.132 211.538 51.132ZM214.759 62.604C214.071 62.604 213.543 62.404 213.175 62.004C212.807 61.604 212.623 61.012 212.623 60.228C212.623 59.524 212.751 58.66 213.007 57.636C213.279 56.596 213.615 55.532 214.015 54.444C213.855 54.412 213.703 54.388 213.559 54.372C213.415 54.34 213.279 54.3 213.151 54.252V53.82C213.279 53.836 213.431 53.852 213.607 53.868C213.783 53.884 213.983 53.9 214.207 53.916C214.543 53.052 214.903 52.22 215.287 51.42C215.671 50.604 216.047 49.884 216.415 49.26C216.799 48.62 217.159 48.116 217.495 47.748C217.847 47.364 218.143 47.172 218.383 47.172C218.511 47.172 218.623 47.22 218.719 47.316C218.831 47.396 218.887 47.524 218.887 47.7C218.887 47.972 218.719 48.42 218.383 49.044C218.047 49.652 217.631 50.38 217.135 51.228C216.639 52.076 216.159 52.996 215.695 53.988C215.839 53.988 215.983 53.988 216.127 53.988C216.287 53.988 216.439 53.988 216.583 53.988C217.111 53.988 217.663 53.98 218.239 53.964C218.831 53.948 219.423 53.908 220.015 53.844V54.276C219.135 54.372 218.343 54.444 217.639 54.492C216.951 54.54 216.335 54.564 215.791 54.564C215.727 54.564 215.663 54.564 215.599 54.564C215.551 54.564 215.495 54.564 215.431 54.564C215.063 55.412 214.751 56.284 214.495 57.18C214.239 58.076 214.111 58.948 214.111 59.796C214.111 60.484 214.215 60.98 214.423 61.284C214.631 61.572 214.975 61.716 215.455 61.716C216.287 61.716 217.103 61.348 217.903 60.612C218.703 59.876 219.407 58.876 220.015 57.612L220.327 57.852C219.943 58.748 219.455 59.556 218.863 60.276C218.287 60.996 217.647 61.564 216.943 61.98C216.239 62.396 215.511 62.604 214.759 62.604ZM220.715 62.628C220.219 62.628 219.803 62.46 219.466 62.124C219.114 61.804 218.938 61.308 218.938 60.636C218.938 60.06 219.066 59.444 219.322 58.788C219.578 58.116 219.931 57.46 220.379 56.82C220.827 56.164 221.331 55.572 221.891 55.044C222.467 54.5 223.067 54.068 223.691 53.748C224.331 53.428 224.963 53.268 225.587 53.268C226.211 53.268 226.731 53.436 227.147 53.772C227.563 54.092 227.771 54.524 227.771 55.068C227.771 55.468 227.659 55.74 227.435 55.884C227.227 56.028 226.947 56.1 226.595 56.1C226.627 55.972 226.651 55.836 226.667 55.692C226.699 55.532 226.715 55.388 226.715 55.26C226.715 54.892 226.627 54.58 226.451 54.324C226.275 54.052 225.971 53.916 225.539 53.916C225.091 53.916 224.635 54.076 224.171 54.396C223.707 54.7 223.259 55.116 222.827 55.644C222.395 56.156 222.011 56.716 221.675 57.324C221.339 57.932 221.075 58.532 220.883 59.124C220.691 59.716 220.595 60.244 220.595 60.708C220.595 61.332 220.811 61.644 221.243 61.644C221.611 61.644 222.011 61.476 222.443 61.14C222.875 60.788 223.315 60.348 223.763 59.82C224.227 59.276 224.667 58.716 225.083 58.14C225.499 57.564 225.867 57.036 226.187 56.556C226.251 56.46 226.291 56.412 226.307 56.412C226.403 56.428 226.523 56.46 226.667 56.508C226.827 56.556 226.963 56.62 227.075 56.7C227.187 56.78 227.243 56.884 227.243 57.012C227.243 57.156 227.171 57.356 227.027 57.612C226.883 57.852 226.723 58.132 226.547 58.452C226.371 58.772 226.211 59.1 226.067 59.436C225.923 59.756 225.851 60.06 225.851 60.348C225.851 60.588 225.915 60.828 226.043 61.068C226.171 61.292 226.379 61.404 226.667 61.404C227.099 61.404 227.667 61.092 228.371 60.468C229.075 59.828 229.787 58.876 230.507 57.612L230.747 57.852C230.411 58.716 229.979 59.476 229.451 60.132C228.923 60.788 228.355 61.3 227.747 61.668C227.155 62.036 226.571 62.22 225.995 62.22C225.403 62.22 224.963 62.044 224.675 61.692C224.403 61.34 224.267 60.956 224.267 60.54C224.267 60.444 224.275 60.34 224.291 60.228C224.307 60.1 224.323 59.972 224.339 59.844C223.651 60.772 223.019 61.468 222.443 61.932C221.883 62.396 221.307 62.628 220.715 62.628ZM234.168 62.124C233.624 62.124 233.192 61.98 232.872 61.692C232.568 61.404 232.416 61.028 232.416 60.564C232.416 60.084 232.528 59.58 232.752 59.052C232.976 58.524 233.192 58.004 233.4 57.492C233.624 56.964 233.736 56.492 233.736 56.076C233.736 55.564 233.584 55.188 233.28 54.948C232.992 54.692 232.696 54.46 232.392 54.252C232.024 55.196 231.64 56.092 231.24 56.94C230.84 57.788 230.512 58.428 230.256 58.86L230.04 58.452C230.264 58.036 230.552 57.428 230.904 56.628C231.272 55.828 231.632 54.916 231.984 53.892C231.824 53.732 231.744 53.54 231.744 53.316C231.744 52.836 231.88 52.444 232.152 52.14C232.424 51.836 232.624 51.684 232.752 51.684C232.928 51.684 233.024 51.764 233.04 51.924C233.072 52.068 233.088 52.18 233.088 52.26C233.088 52.34 233.04 52.5 232.944 52.74C232.864 52.964 232.824 53.1 232.824 53.148C232.824 53.372 232.944 53.58 233.184 53.772C233.44 53.948 233.728 54.156 234.048 54.396C234.368 54.62 234.648 54.9 234.888 55.236C235.144 55.556 235.272 55.972 235.272 56.484C235.272 56.964 235.168 57.452 234.96 57.948C234.768 58.444 234.568 58.916 234.36 59.364C234.168 59.812 234.072 60.204 234.072 60.54C234.072 60.828 234.144 61.02 234.288 61.116C234.432 61.212 234.6 61.26 234.792 61.26C235.176 61.26 235.568 61.14 235.968 60.9C236.384 60.66 236.784 60.356 237.168 59.988C237.552 59.62 237.896 59.236 238.2 58.836C238.504 58.42 238.728 58.036 238.872 57.684L239.184 57.924C238.88 58.596 238.464 59.26 237.936 59.916C237.408 60.556 236.816 61.084 236.16 61.5C235.52 61.916 234.856 62.124 234.168 62.124ZM239.511 62.628C239.015 62.628 238.599 62.46 238.263 62.124C237.911 61.804 237.735 61.308 237.735 60.636C237.735 60.06 237.863 59.444 238.119 58.788C238.375 58.116 238.727 57.46 239.175 56.82C239.623 56.164 240.127 55.572 240.687 55.044C241.263 54.5 241.863 54.068 242.487 53.748C243.127 53.428 243.759 53.268 244.383 53.268C245.007 53.268 245.527 53.436 245.943 53.772C246.359 54.092 246.567 54.524 246.567 55.068C246.567 55.468 246.455 55.74 246.231 55.884C246.023 56.028 245.743 56.1 245.391 56.1C245.423 55.972 245.447 55.836 245.463 55.692C245.495 55.532 245.511 55.388 245.511 55.26C245.511 54.892 245.423 54.58 245.247 54.324C245.071 54.052 244.767 53.916 244.335 53.916C243.887 53.916 243.431 54.076 242.967 54.396C242.503 54.7 242.055 55.116 241.623 55.644C241.191 56.156 240.807 56.716 240.471 57.324C240.135 57.932 239.871 58.532 239.679 59.124C239.487 59.716 239.391 60.244 239.391 60.708C239.391 61.332 239.607 61.644 240.039 61.644C240.407 61.644 240.807 61.476 241.239 61.14C241.671 60.788 242.111 60.348 242.559 59.82C243.023 59.276 243.463 58.716 243.879 58.14C244.295 57.564 244.663 57.036 244.983 56.556C245.047 56.46 245.087 56.412 245.103 56.412C245.199 56.428 245.319 56.46 245.463 56.508C245.623 56.556 245.759 56.62 245.871 56.7C245.983 56.78 246.039 56.884 246.039 57.012C246.039 57.156 245.967 57.356 245.823 57.612C245.679 57.852 245.519 58.132 245.343 58.452C245.167 58.772 245.007 59.1 244.863 59.436C244.719 59.756 244.647 60.06 244.647 60.348C244.647 60.588 244.711 60.828 244.839 61.068C244.967 61.292 245.175 61.404 245.463 61.404C245.895 61.404 246.463 61.092 247.167 60.468C247.871 59.828 248.583 58.876 249.303 57.612L249.543 57.852C249.207 58.716 248.775 59.476 248.247 60.132C247.719 60.788 247.151 61.3 246.543 61.668C245.951 62.036 245.367 62.22 244.791 62.22C244.199 62.22 243.759 62.044 243.471 61.692C243.199 61.34 243.063 60.956 243.063 60.54C243.063 60.444 243.071 60.34 243.087 60.228C243.103 60.1 243.119 59.972 243.135 59.844C242.447 60.772 241.815 61.468 241.239 61.932C240.679 62.396 240.103 62.628 239.511 62.628ZM247.695 51.852C247.263 51.852 246.815 51.764 246.351 51.588C245.887 51.396 245.415 51.212 244.935 51.036C244.471 50.844 243.991 50.748 243.495 50.748C243.287 50.748 243.071 50.78 242.847 50.844C242.623 50.892 242.407 50.98 242.199 51.108C242.519 50.66 242.855 50.348 243.207 50.172C243.559 49.996 243.919 49.908 244.287 49.908C244.735 49.908 245.199 50.004 245.679 50.196C246.159 50.388 246.663 50.58 247.191 50.772C247.719 50.964 248.271 51.06 248.847 51.06C249.103 51.06 249.375 50.996 249.663 50.868C249.359 51.236 249.039 51.492 248.703 51.636C248.383 51.78 248.047 51.852 247.695 51.852ZM250.469 62.268C249.781 62.268 249.293 62.052 249.005 61.62C248.716 61.204 248.572 60.692 248.572 60.084C248.572 59.588 248.652 59.076 248.812 58.548C248.973 58.02 249.181 57.524 249.437 57.06C249.709 56.596 250.005 56.22 250.325 55.932C250.661 55.644 250.997 55.5 251.333 55.5C251.413 55.5 251.493 55.516 251.573 55.548C251.669 55.564 251.757 55.588 251.837 55.62C251.693 55.748 251.517 55.988 251.309 56.34C251.117 56.676 250.933 57.068 250.757 57.516C250.581 57.948 250.429 58.38 250.301 58.812C250.189 59.244 250.133 59.612 250.133 59.916C250.133 60.396 250.213 60.748 250.373 60.972C250.533 61.18 250.741 61.284 250.997 61.284C251.333 61.284 251.733 61.108 252.197 60.756C252.661 60.388 253.117 59.924 253.565 59.364C253.117 58.996 252.765 58.516 252.509 57.924C252.269 57.316 252.149 56.7 252.149 56.076C252.149 55.548 252.237 55.052 252.413 54.588C252.605 54.124 252.877 53.756 253.229 53.484C253.581 53.196 254.005 53.052 254.501 53.052C255.157 53.052 255.597 53.228 255.821 53.58C256.045 53.932 256.157 54.372 256.157 54.9C256.157 55.524 256.005 56.22 255.701 56.988C255.397 57.74 255.013 58.468 254.549 59.172C254.837 59.332 255.141 59.412 255.461 59.412C255.717 59.412 256.005 59.364 256.325 59.268C256.645 59.156 256.957 58.972 257.261 58.716C257.581 58.46 257.837 58.116 258.029 57.684L258.317 57.924C257.997 58.676 257.541 59.212 256.949 59.532C256.373 59.836 255.821 59.988 255.293 59.988C255.085 59.988 254.885 59.972 254.693 59.94C254.501 59.892 254.317 59.828 254.141 59.748C253.597 60.468 252.997 61.068 252.34 61.548C251.701 62.028 251.077 62.268 250.469 62.268ZM253.997 58.74C254.397 58.148 254.725 57.532 254.98 56.892C255.253 56.236 255.389 55.62 255.389 55.044C255.389 54.58 255.317 54.244 255.173 54.036C255.045 53.812 254.877 53.7 254.669 53.7C254.349 53.7 254.021 53.932 253.685 54.396C253.349 54.86 253.181 55.444 253.181 56.148C253.181 56.612 253.245 57.084 253.373 57.564C253.517 58.028 253.725 58.42 253.997 58.74ZM258.538 61.74C258.33 61.74 258.146 61.684 257.986 61.572C257.842 61.476 257.77 61.316 257.77 61.092C257.77 60.916 257.842 60.756 257.986 60.612C258.13 60.452 258.306 60.332 258.514 60.252C258.738 60.156 258.954 60.108 259.162 60.108C259.354 60.108 259.506 60.148 259.618 60.228C259.73 60.308 259.786 60.46 259.786 60.684C259.786 60.844 259.722 61.004 259.594 61.164C259.482 61.324 259.33 61.46 259.138 61.572C258.946 61.684 258.746 61.74 258.538 61.74Z" fill="black"/>
</g>
<defs>
<filter id="filter0_d_105_3" x="0.5" y="0.5" width="297" height="82" filterUnits="userSpaceOnUse" color-interpolation-filters="sRGB">
<feFlood flood-opacity="0" result="BackgroundImageFix"/>
<feColorMatrix in="SourceAlpha" type="matrix" values="0 0 0 0 0 0 0 0 0 0 0 0 0 0 0 0 0 0 127 0" result="hardAlpha"/>
<feOffset dx="2" dy="2"/>
<feGaussianBlur stdDeviation="1"/>
<feComposite in2="hardAlpha" operator="out"/>
<feColorMatrix type="matrix" values="0 0 0 0 0.333333 0 0 0 0 0.333333 0 0 0 0 0.333333 0 0 0 0.5 0"/>
<feBlend mode="normal" in2="BackgroundImageFix" result="effect1_dropShadow_105_3"/>
<feBlend mode="normal" in="SourceGraphic" in2="effect1_dropShadow_105_3" result="shape"/>
</filter>
</defs>
</svg>
